<?xml version="1.0" encoding="utf-8"?>
<!-- Generator: Adobe Illustrator 16.0.0, SVG Export Plug-In . SVG Version: 6.00 Build 0)  -->
<!DOCTYPE svg PUBLIC "-//W3C//DTD SVG 1.1//EN" "http://www.w3.org/Graphics/SVG/1.1/DTD/svg11.dtd">
<svg version="1.1" id="Layer_1" xmlns="http://www.w3.org/2000/svg" xmlns:xlink="http://www.w3.org/1999/xlink" x="0px" y="0px"
	 width="166.333px" height="42.5px" viewBox="0 0 166.333 42.5" enable-background="new 0 0 166.333 42.5" xml:space="preserve">
<g>
	<path fill="#FFFFFF" d="M16.402,4.066c0.408-0.677,0.912-1.017,1.513-1.017c0.621,0,1.13,0.332,1.528,0.993
		c0.397,0.663,0.597,1.51,0.597,2.545v31.687c0,0.644,0.204,0.968,0.611,0.968h0.757v2.567h-0.757c-0.621,0-1.13-0.328-1.528-0.99
		c-0.397-0.663-0.596-1.514-0.596-2.545V6.587c0-0.646-0.198-0.97-0.597-0.97c-0.378,0-0.567,0.324-0.567,0.97v11.337
		c0,1.712-0.326,3.101-0.978,4.167c-0.651,1.066-1.493,1.599-2.522,1.599H8.408c-1.031,0-1.873-0.532-2.523-1.599
		c-0.652-1.066-0.977-2.455-0.977-4.167V6.587c0-0.646-0.194-0.97-0.582-0.97c-0.389,0-0.583,0.324-0.583,0.97v31.687
		c0,1.031-0.199,1.882-0.596,2.545c-0.398,0.662-0.908,0.99-1.529,0.99H0.833v-2.518l0.757-0.05
		c0.408-0.029,0.611-0.354,0.611-0.968V6.587c0-1.035,0.199-1.882,0.596-2.545c0.397-0.662,0.907-0.993,1.528-0.993
		c0.621,0,1.13,0.332,1.528,0.993C6.251,4.705,6.45,5.553,6.45,6.587v11.288c0,1.001,0.175,1.801,0.524,2.399
		c0.349,0.597,0.825,0.896,1.427,0.896h5.441c0.582,0,1.052-0.299,1.411-0.896c0.359-0.599,0.539-1.381,0.539-2.351V6.587
		C15.792,5.586,15.995,4.746,16.402,4.066z"/>
	<path fill="#FFFFFF" d="M25.758,7.822c2.008-3.344,4.448-5.015,7.319-5.015c2.891,0,5.34,1.671,7.349,5.015
		c2.008,3.343,3.011,7.42,3.011,12.234c0,4.037-0.771,7.64-2.314,10.805c-1.542,3.165-3.506,5.171-5.892,6.009v2.372h9.574v2.567
		H33.659v-7.12l0.671-0.144c2.161-0.455,3.963-2.076,5.404-4.872c1.44-2.792,2.161-6.001,2.161-9.617
		c0-4.103-0.854-7.575-2.562-10.418c-1.707-2.842-3.792-4.263-6.256-4.263c-2.444,0-4.521,1.429-6.228,4.288
		c-1.708,2.857-2.561,6.322-2.561,10.393c0,3.616,0.716,6.825,2.153,9.617c1.436,2.796,3.231,4.417,5.384,4.872l0.669,0.144v7.12
		H21.379v-2.567h9.574V36.87c-2.387-0.838-4.351-2.844-5.893-6.009c-1.543-3.165-2.313-6.768-2.313-10.805
		C22.747,15.243,23.75,11.165,25.758,7.822z"/>
	<path fill="#FFFFFF" d="M64.623,39.242l0.756,0.05L65.35,41.81h-0.756c-0.622,0-1.13-0.328-1.528-0.99
		c-0.398-0.663-0.597-1.514-0.597-2.545V8.234L55.106,24.61L47.744,8.234v30.041c0,1.031-0.199,1.882-0.596,2.545
		c-0.398,0.662-0.907,0.99-1.528,0.99h-0.785v-2.518l0.756-0.05c0.408-0.029,0.612-0.354,0.612-0.968V3.049h1.105l7.799,17.297
		l7.799-17.297h1.107v35.225C64.012,38.888,64.215,39.213,64.623,39.242z"/>
	<path fill="#FFFFFF" d="M81.092,3.049c0.622,0,1.136,0.332,1.543,0.993c0.408,0.663,0.611,1.51,0.611,2.545
		c0,1.034-0.203,1.881-0.611,2.542c-0.407,0.662-0.921,0.994-1.543,0.994h-8.147c-0.583,0-1.053,0.299-1.411,0.896
		c-0.36,0.598-0.539,1.381-0.539,2.351c0,0.969,0.179,1.752,0.539,2.349c0.358,0.598,0.829,0.896,1.411,0.896h5.441
		c0.622,0,1.13,0.332,1.529,0.994c0.397,0.663,0.596,1.51,0.596,2.543c0,1.066-0.194,1.923-0.582,2.568
		c-0.388,0.648-0.902,0.969-1.543,0.969h-5.441c-0.583,0-1.053,0.299-1.411,0.896c-0.36,0.601-0.539,1.383-0.539,2.352
		c0,2.165,0.649,3.245,1.95,3.245h8.147c0.622,0,1.136,0.339,1.543,1.018c0.408,0.679,0.611,1.534,0.611,2.567
		c0,1.002-0.208,1.844-0.626,2.521c-0.417,0.677-0.926,1.018-1.528,1.018h-9.486c-0.408,0-0.611,0.324-0.611,0.969
		c0,0.644,0.204,0.968,0.611,0.968h12.979v2.567H71.606c-0.622,0-1.135-0.328-1.542-0.99c-0.407-0.663-0.611-1.514-0.611-2.545
		s0.205-1.882,0.611-2.545c0.408-0.659,0.921-0.99,1.542-0.99h9.486c0.408,0,0.612-0.316,0.612-0.946
		c0-0.663-0.204-0.994-0.612-0.994h-8.147c-1.009,0-1.844-0.552-2.503-1.659c-0.66-1.109-0.99-2.508-0.99-4.203
		s0.33-3.085,0.99-4.178c0.659-1.091,1.494-1.636,2.503-1.636h5.441c0.389,0,0.583-0.332,0.583-0.993
		c0-0.63-0.194-0.946-0.583-0.946h-5.441c-1.009,0-1.844-0.548-2.503-1.646c-0.66-1.099-0.99-2.488-0.99-4.167
		c0-1.681,0.33-3.069,0.99-4.168c0.659-1.097,1.494-1.646,2.503-1.646h8.147c0.408,0,0.612-0.323,0.612-0.968
		c0-0.646-0.204-0.97-0.612-0.97H68.288v32.657c0,1.031-0.198,1.882-0.596,2.545c-0.398,0.662-0.907,0.99-1.528,0.99h-0.786v-2.567
		h0.755c0.408-0.029,0.612-0.354,0.612-0.968V3.049H81.092z"/>
	<path fill="#FFFFFF" d="M118.895,39.242l0.757,0.05l-0.029,2.518h-0.756c-0.621,0-1.131-0.328-1.528-0.99
		c-0.398-0.663-0.598-1.514-0.598-2.545V8.234l-7.361,16.376l-7.362-16.376v30.041c0,1.031-0.199,1.882-0.598,2.545
		c-0.397,0.662-0.907,0.99-1.527,0.99h-0.785v-2.518l0.756-0.05c0.407-0.029,0.611-0.354,0.611-0.968V3.049h1.105l7.799,17.297
		l7.799-17.297h1.105v35.225C118.284,38.888,118.487,39.213,118.895,39.242z"/>
	<path fill="#FFFFFF" d="M126.636,39.292l0.029,2.468l-0.785,0.05c-0.622,0.035-1.136-0.29-1.542-0.969
		c-0.408-0.678-0.612-1.535-0.612-2.566V11.141c0-0.678-0.194-1.018-0.582-1.018s-0.582,0.324-0.582,0.969v27.182
		c0,1.031-0.2,1.882-0.597,2.545c-0.397,0.662-0.907,0.99-1.527,0.99h-0.786v-2.518l0.757-0.05c0.407-0.029,0.611-0.354,0.611-0.968
		V11.092c0-0.839,0.155-1.599,0.465-2.278c-0.311-0.646-0.465-1.387-0.465-2.227c0-0.97,0.208-1.801,0.625-2.497
		c0.417-0.694,0.917-1.042,1.499-1.042c0.582,0,1.082,0.348,1.499,1.042c0.417,0.696,0.626,1.526,0.626,2.497
		c0,0.84-0.156,1.582-0.465,2.227c0.31,0.679,0.465,1.439,0.465,2.278v27.182c0,0.613,0.204,0.938,0.611,0.968L126.636,39.292z
		 M122.562,6.587c0,0.645,0.194,0.968,0.582,0.968s0.582-0.323,0.582-0.968c0-0.646-0.194-0.97-0.582-0.97
		S122.562,5.941,122.562,6.587z"/>
	<path fill="#FFFFFF" d="M139.479,4.045c0.395-0.663,0.901-0.996,1.518-0.996c0.636,0,1.146,0.323,1.532,0.971
		c0.386,0.649,0.578,1.506,0.578,2.574v31.627c0,0.683,0.203,1.021,0.611,1.021h0.757l0.029,2.616l-0.814-0.146
		c-1.398-0.257-2.096-1.434-2.096-3.528V6.682c0-0.677-0.198-1.016-0.597-1.016c-0.378,0-0.566,0.338-0.566,1.016V41.81h-1.197
		l-9.688-32.025v28.44c0,1.037-0.194,1.883-0.582,2.546c-0.389,0.663-0.893,0.989-1.514,0.989h-0.785v-2.518h0.756
		c0.407,0,0.611-0.338,0.611-1.018V3.049h1.196l9.659,32.078V6.598C138.888,5.56,139.084,4.71,139.479,4.045z"/>
	<path fill="#FFFFFF" d="M153.437,3.049c1.707,0,3.435,0.743,5.181,2.229c3.395,2.875,5.093,7.833,5.093,14.875
		c0,7.075-1.699,12.048-5.093,14.924c-1.746,1.486-3.474,2.229-5.181,2.229h-2.734c-0.447,0-0.661,0.306-0.641,0.919
		c0.02,0.68,0.242,1.018,0.669,1.018h14.347v2.567h-14.321c-0.62,0-1.134-0.319-1.541-0.969c-0.406-0.644-0.62-1.483-0.639-2.518
		c-0.02-1.099,0.175-1.971,0.581-2.616c0.406-0.647,0.938-0.968,1.597-0.968h2.701c1.548,0,3.048-0.63,4.501-1.892
		c2.827-2.454,4.239-6.686,4.239-12.695S160.78,9.93,157.948,7.506c-1.474-1.259-2.979-1.889-4.511-1.889h-6.023v32.657
		c0,1.031-0.199,1.882-0.596,2.545c-0.398,0.662-0.908,0.99-1.529,0.99h-0.786v-2.567h0.757c0.408-0.029,0.612-0.354,0.612-0.968
		V3.049H153.437z"/>
</g>
</svg>
