<?xml version="1.0" encoding="utf-8"?>
<!-- Generator: Adobe Illustrator 16.0.0, SVG Export Plug-In . SVG Version: 6.00 Build 0)  -->
<!DOCTYPE svg PUBLIC "-//W3C//DTD SVG 1.1//EN" "http://www.w3.org/Graphics/SVG/1.1/DTD/svg11.dtd">
<svg version="1.1" id="Layer_1" xmlns="http://www.w3.org/2000/svg" xmlns:xlink="http://www.w3.org/1999/xlink" x="0px" y="0px"
	 width="195.333px" height="114.332px" viewBox="0 0 195.333 114.332" enable-background="new 0 0 195.333 114.332"
	 xml:space="preserve">
<g>
	<path d="M50.036,253.633l0.71,3.583c0.151,0.786,0.302,1.571,0.393,2.327H51.2c0.106-0.756,0.287-1.604,0.454-2.298l0.846-3.612
		h0.892l0.801,3.508c0.182,0.815,0.348,1.586,0.468,2.402h0.061c0.091-0.771,0.227-1.527,0.394-2.357l0.695-3.553h1.164
		l-1.844,7.315h-0.953l-0.846-3.552c-0.182-0.711-0.287-1.36-0.408-2.191h-0.03c-0.122,0.861-0.257,1.541-0.423,2.236l-0.877,3.507
		H50.61l-1.784-7.315H50.036L50.036,253.633z"/>
	<path d="M59.65,253.633l0.71,3.583c0.151,0.786,0.302,1.571,0.393,2.327h0.061c0.106-0.756,0.287-1.604,0.454-2.298l0.847-3.612
		h0.891l0.802,3.508c0.181,0.815,0.348,1.586,0.468,2.402h0.061c0.091-0.771,0.227-1.527,0.393-2.357l0.695-3.553h1.164
		l-1.844,7.315h-0.952l-0.846-3.552c-0.182-0.711-0.288-1.36-0.409-2.191h-0.03c-0.121,0.861-0.257,1.541-0.423,2.236l-0.877,3.507
		h-0.982l-1.784-7.315H59.65L59.65,253.633z"/>
	<path d="M69.264,253.633l0.71,3.583c0.151,0.786,0.302,1.571,0.393,2.327h0.061c0.105-0.756,0.287-1.604,0.453-2.298l0.846-3.612
		h0.892l0.801,3.508c0.181,0.815,0.347,1.586,0.468,2.402h0.06c0.091-0.771,0.227-1.527,0.393-2.357l0.695-3.553H76.2l-1.844,7.315
		h-0.953l-0.847-3.552c-0.18-0.711-0.287-1.36-0.408-2.191h-0.03c-0.121,0.861-0.257,1.541-0.423,2.236l-0.876,3.507h-0.982
		l-1.783-7.315H69.264L69.264,253.633z"/>
	<path d="M77.26,260.193c0-0.514,0.347-0.879,0.771-0.879c0.453,0,0.771,0.35,0.771,0.879c0,0.527-0.288,0.875-0.787,0.875
		C77.593,261.068,77.26,260.723,77.26,260.193L77.26,260.193z"/>
	<polygon points="81.024,250.488 82.188,250.488 82.188,260.948 81.024,260.948 	"/>
	<path d="M85.513,257.291c0,1.209,0.212,2.855,1.27,2.855c0.998,0,1.209-1.707,1.209-2.855c0-1.119-0.211-2.842-1.239-2.842
		C85.71,254.449,85.513,256.172,85.513,257.291L85.513,257.291z M89.156,257.291c0,2.826-1.3,3.777-2.434,3.777
		c-1.315,0-2.373-1.192-2.373-3.762c0-2.662,1.195-3.779,2.449-3.779C88.114,253.527,89.156,254.751,89.156,257.291L89.156,257.291z
		"/>
	<path d="M94.477,256.156c0-0.182-0.015-0.377-0.061-0.527c-0.121-0.499-0.393-1.104-1.058-1.104c-0.846,0-1.299,1.135-1.299,2.75
		c0,1.858,0.589,2.707,1.299,2.707c0.364,0,0.817-0.168,1.043-1.043c0.061-0.229,0.075-0.455,0.075-0.666L94.477,256.156
		L94.477,256.156z M95.626,260.011c0,1.921-0.242,2.646-0.727,3.189c-0.438,0.483-1.118,0.771-1.949,0.771
		c-0.62,0-1.225-0.15-1.602-0.361l0.272-0.906c0.287,0.148,0.77,0.316,1.36,0.316c0.922,0,1.496-0.574,1.496-2.238v-0.739h-0.03
		c-0.242,0.575-0.786,0.894-1.405,0.894c-1.3,0-2.146-1.468-2.146-3.611c0-2.691,1.224-3.795,2.313-3.795
		c0.771,0,1.134,0.515,1.36,0.923h0.03l0.062-0.816h1.026c-0.014,0.499-0.06,1.147-0.06,2.282V260.011L95.626,260.011z"/>
	<path d="M98.846,257.291c0,1.209,0.212,2.855,1.27,2.855c0.997,0,1.211-1.707,1.211-2.855c0-1.119-0.214-2.842-1.24-2.842
		C99.043,254.449,98.846,256.172,98.846,257.291L98.846,257.291z M102.489,257.291c0,2.826-1.301,3.777-2.434,3.777
		c-1.314,0-2.373-1.192-2.373-3.762c0-2.662,1.193-3.779,2.449-3.779C101.446,253.527,102.489,254.751,102.489,257.291
		L102.489,257.291z"/>
	<path d="M107.659,256.535c0.016-1.45-0.529-2.102-1.089-2.102c-0.771,0-1.147,1.104-1.192,2.102H107.659L107.659,256.535z
		 M105.361,257.396c0,2.252,0.892,2.721,1.724,2.721c0.516,0,0.924-0.121,1.211-0.271l0.195,0.846
		c-0.408,0.214-1.027,0.351-1.617,0.351c-1.754,0-2.66-1.438-2.66-3.674c0-2.356,1.015-3.841,2.479-3.841
		c1.479,0,2.085,1.572,2.085,3.203c0,0.289-0.015,0.485-0.029,0.666H105.361L105.361,257.396z"/>
	<path d="M111.922,258.273c0,0.211,0.014,0.424,0.06,0.604c0.228,1.043,0.757,1.225,1.073,1.225c0.969,0,1.285-1.33,1.285-2.795
		c0-1.514-0.362-2.783-1.301-2.783c-0.528,0-1.014,0.649-1.074,1.315c-0.029,0.166-0.043,0.363-0.043,0.56V258.273L111.922,258.273z
		 M110.773,255.915c0-1.119-0.045-1.769-0.06-2.282h1.027l0.061,0.938h0.029c0.406-0.771,0.981-1.043,1.557-1.043
		c1.285,0,2.117,1.347,2.117,3.748c0,2.723-1.119,3.795-2.27,3.795c-0.693,0-1.088-0.438-1.283-0.846h-0.029v3.627h-1.149V255.915
		L110.773,255.915z"/>
	<path d="M117.377,259.739c0.258,0.165,0.711,0.378,1.181,0.378c0.649,0,1.073-0.408,1.073-1.059c0-0.561-0.196-0.938-0.938-1.437
		c-0.95-0.604-1.466-1.24-1.466-2.071c0-1.193,0.876-2.023,2.01-2.023c0.574,0,0.998,0.195,1.301,0.377l-0.303,0.877
		c-0.285-0.195-0.59-0.332-0.982-0.332c-0.619,0-0.938,0.453-0.938,0.938c0,0.482,0.182,0.756,0.907,1.256
		c0.846,0.543,1.512,1.209,1.512,2.222c0,1.467-0.998,2.178-2.207,2.178c-0.526,0-1.118-0.168-1.438-0.424L117.377,259.739
		L117.377,259.739z"/>
	<path d="M122.427,260.193c0-0.514,0.348-0.879,0.771-0.879c0.453,0,0.771,0.35,0.771,0.879c0,0.527-0.287,0.875-0.786,0.875
		C122.76,261.068,122.427,260.723,122.427,260.193L122.427,260.193z"/>
	<path d="M129.758,260.768c-0.258,0.151-0.695,0.272-1.209,0.272c-1.604,0-2.676-1.285-2.676-3.703c0-2.103,1.06-3.81,2.888-3.81
		c0.394,0,0.815,0.104,1.026,0.227l-0.227,0.952c-0.15-0.076-0.455-0.197-0.832-0.197c-1.18,0-1.691,1.392-1.691,2.828
		c0,1.707,0.648,2.735,1.724,2.735c0.302,0,0.573-0.063,0.831-0.196L129.758,260.768L129.758,260.768z"/>
	<path d="M132.268,257.291c0,1.209,0.212,2.855,1.271,2.855c0.996,0,1.209-1.707,1.209-2.855c0-1.119-0.213-2.842-1.24-2.842
		C132.463,254.449,132.268,256.172,132.268,257.291L132.268,257.291z M135.911,257.291c0,2.826-1.299,3.777-2.433,3.777
		c-1.315,0-2.374-1.192-2.374-3.762c0-2.662,1.193-3.779,2.449-3.779C134.87,253.527,135.911,254.751,135.911,257.291
		L135.911,257.291z"/>
	<path d="M137.965,255.521c0-0.86-0.045-1.299-0.061-1.891h1.016l0.06,0.907h0.03c0.316-0.59,0.877-1.015,1.646-1.015
		c0.683,0,1.257,0.317,1.527,1.119h0.028c0.195-0.361,0.453-0.666,0.727-0.832c0.287-0.195,0.637-0.287,1.014-0.287
		c0.982,0,1.754,0.711,1.754,2.584v4.838h-1.148v-4.578c0-0.953-0.137-1.875-1.028-1.875c-0.481,0-0.905,0.406-1.071,1.104
		c-0.031,0.182-0.047,0.407-0.047,0.649v4.7h-1.146v-4.793c0-0.799-0.137-1.661-1.014-1.661c-0.482,0-0.953,0.407-1.088,1.194
		c-0.031,0.181-0.047,0.393-0.047,0.619v4.641h-1.148v-5.426h-0.002V255.521z"/>
	<path d="M-62,246.881v-0.652l0.705-0.965c1.017-1.408,2.204-3,2.204-4.593c0-0.938-0.404-1.512-1.2-1.512
		c-0.613,0-1.018,0.325-1.226,0.47l-0.248-0.758c0.287-0.247,0.887-0.574,1.656-0.574c1.409,0,2.009,1.044,2.009,2.322
		c0,1.592-1.03,3.131-2.087,4.566l-0.561,0.78v0.026h2.818v0.887L-62,246.881L-62,246.881z"/>
	<path d="M-55.401,242.643c-0.014,2.047,0.338,3.481,1.173,3.481c0.809,0,1.135-1.448,1.135-3.481c0-1.981-0.327-3.481-1.135-3.481
		C-55.049,239.159-55.401,240.593-55.401,242.643L-55.401,242.643z M-52.088,242.628c0,3.093-0.978,4.356-2.204,4.356
		c-1.317,0-2.113-1.565-2.113-4.33c0-2.856,0.847-4.357,2.23-4.357C-52.806,238.297-52.088,239.928-52.088,242.628L-52.088,242.628z
		"/>
	<path d="M-49.728,242.643c-0.014,2.047,0.339,3.481,1.174,3.481c0.809,0,1.135-1.448,1.135-3.481c0-1.981-0.326-3.481-1.135-3.481
		C-49.376,239.159-49.728,240.593-49.728,242.643L-49.728,242.643z M-46.415,242.628c0,3.093-0.979,4.356-2.205,4.356
		c-1.317,0-2.113-1.565-2.113-4.33c0-2.856,0.848-4.357,2.23-4.357C-47.132,238.297-46.415,239.928-46.415,242.628L-46.415,242.628z
		"/>
	<path d="M-45.19,248.523c0.273-0.758,0.626-2.141,0.756-3.039l1.135-0.131c-0.3,1.058-0.848,2.504-1.2,3.078L-45.19,248.523
		L-45.19,248.523z"/>
	<path d="M-40.873,242.643c-0.014,2.047,0.339,3.481,1.174,3.481c0.809,0,1.135-1.448,1.135-3.481c0-1.981-0.326-3.481-1.135-3.481
		C-40.521,239.159-40.873,240.593-40.873,242.643L-40.873,242.643z M-37.56,242.628c0,3.093-0.979,4.356-2.205,4.356
		c-1.317,0-2.113-1.565-2.113-4.33c0-2.856,0.848-4.357,2.23-4.357C-38.277,238.297-37.56,239.928-37.56,242.628L-37.56,242.628z"/>
	<path d="M-35.2,242.643c-0.014,2.047,0.338,3.481,1.173,3.481c0.809,0,1.135-1.448,1.135-3.481c0-1.981-0.327-3.481-1.135-3.481
		C-34.848,239.159-35.2,240.593-35.2,242.643L-35.2,242.643z M-31.887,242.628c0,3.093-0.978,4.356-2.204,4.356
		c-1.317,0-2.113-1.565-2.113-4.33c0-2.856,0.847-4.357,2.23-4.357C-32.604,238.297-31.887,239.928-31.887,242.628L-31.887,242.628z
		"/>
	<path d="M-29.526,242.643c-0.014,2.047,0.338,3.481,1.173,3.481c0.809,0,1.135-1.448,1.135-3.481c0-1.981-0.327-3.481-1.135-3.481
		C-29.174,239.159-29.526,240.593-29.526,242.643L-29.526,242.643z M-26.214,242.628c0,3.093-0.978,4.356-2.204,4.356
		c-1.317,0-2.113-1.565-2.113-4.33c0-2.856,0.847-4.357,2.23-4.357C-26.931,238.297-26.214,239.928-26.214,242.628L-26.214,242.628z
		"/>
	<polygon points="-20.945,239.928 -20.945,243.032 -17.945,243.032 -17.945,243.75 -20.945,243.75 -20.945,246.881 -21.688,246.881 
		-21.688,243.75 -24.675,243.75 -24.675,243.032 -21.688,243.032 -21.688,239.928 	"/>
	<path d="M-12.403,244.663c0,0.144,0.013,0.274,0.039,0.392c0.235,0.926,0.666,1.096,0.953,1.096c0.809,0,1.095-1.096,1.095-2.438
		c0-1.268-0.3-2.374-1.122-2.374c-0.47,0-0.848,0.574-0.939,1.122c-0.013,0.145-0.026,0.286-0.026,0.432V244.663L-12.403,244.663z
		 M-13.395,237.854h0.991v3.473h0.026c0.327-0.627,0.796-0.85,1.344-0.85c0.991,0,1.722,1.123,1.722,3.195
		c0,2.27-0.939,3.313-1.917,3.313c-0.665,0-1.004-0.392-1.252-0.926h-0.052l-0.065,0.821h-0.848
		c0.013-0.364,0.052-1.083,0.052-1.514L-13.395,237.854L-13.395,237.854z"/>
	<path d="M-7.539,242.198c0-0.535-0.039-1.161-0.052-1.632h0.899l0.053,1.006h0.026c0.208-0.602,0.744-1.098,1.331-1.098
		c0.078,0,0.144,0,0.208,0.014v1.019c-0.065,0-0.13,0-0.208,0c-0.639,0-1.108,0.587-1.213,1.304
		c-0.026,0.17-0.039,0.367-0.039,0.574v3.496h-1.004L-7.539,242.198L-7.539,242.198z"/>
	<path d="M-1.37,243.605c-0.522,0-1.735,0.104-1.735,1.476c0,0.835,0.417,1.121,0.769,1.121c0.443,0,0.81-0.326,0.927-0.951
		c0.026-0.118,0.039-0.248,0.039-0.366V243.605L-1.37,243.605z M-0.392,245.445c0,0.48,0.013,1.031,0.065,1.436h-0.9l-0.065-0.665
		h-0.039c-0.273,0.482-0.717,0.771-1.265,0.771c-0.834,0-1.487-0.704-1.487-1.801c0-1.593,1.266-2.283,2.688-2.297v-0.195
		c0-0.848-0.222-1.422-1.004-1.422c-0.392,0-0.744,0.117-1.044,0.328l-0.222-0.707c0.274-0.193,0.848-0.416,1.474-0.416
		c1.266,0,1.8,0.821,1.8,2.23L-0.392,245.445L-0.392,245.445z"/>
	<path d="M1.682,242.198c0-0.743-0.04-1.122-0.052-1.632h0.874l0.052,0.771h0.026c0.274-0.508,0.783-0.86,1.448-0.86
		c0.874,0,1.526,0.641,1.526,2.166v4.238H4.551v-4.058c0-0.757-0.144-1.499-0.874-1.499c-0.417,0-0.822,0.354-0.939,1.018
		c-0.039,0.156-0.052,0.352-0.052,0.573v3.966H1.682V242.198L1.682,242.198z"/>
	<path d="M10.419,242.98c0-0.131,0-0.287-0.012-0.418c-0.066-0.664-0.457-1.228-0.939-1.228c-0.835,0-1.122,1.161-1.122,2.413
		c0,1.331,0.339,2.398,1.07,2.398c0.313,0,0.744-0.17,0.966-1.082c0.026-0.119,0.038-0.262,0.038-0.418L10.419,242.98L10.419,242.98
		z M11.412,237.854v7.516c0,0.431,0.039,1.146,0.052,1.514h-0.861l-0.066-0.781h-0.039c-0.208,0.441-0.652,0.887-1.331,0.887
		c-1.056,0-1.826-1.147-1.826-3.234c0-2.23,0.926-3.273,1.891-3.273c0.469,0,0.913,0.209,1.161,0.742h0.026v-3.365h0.993V237.854z"
		/>
	<polygon points="16.17,237.854 17.175,237.854 17.175,246.881 16.17,246.881 	"/>
	<path d="M20.044,243.725c0,1.043,0.183,2.465,1.095,2.465c0.861,0,1.044-1.474,1.044-2.465c0-0.966-0.184-2.453-1.07-2.453
		C20.214,241.271,20.044,242.759,20.044,243.725L20.044,243.725z M23.188,243.725c0,2.438-1.122,3.262-2.1,3.262
		c-1.135,0-2.048-1.03-2.048-3.25c0-2.295,1.031-3.26,2.113-3.26C22.288,240.477,23.188,241.532,23.188,243.725L23.188,243.725z"/>
	<path d="M27.778,242.745c0-0.156-0.013-0.325-0.052-0.456c-0.104-0.432-0.339-0.952-0.913-0.952c-0.73,0-1.122,0.979-1.122,2.374
		c0,1.604,0.509,2.335,1.122,2.335c0.313,0,0.705-0.144,0.901-0.899c0.052-0.195,0.064-0.393,0.064-0.573V242.745L27.778,242.745z
		 M28.77,246.072c0,1.656-0.209,2.281-0.626,2.751c-0.378,0.418-0.965,0.665-1.682,0.665c-0.535,0-1.057-0.129-1.383-0.313
		l0.234-0.782c0.248,0.131,0.666,0.274,1.174,0.274c0.795,0,1.291-0.496,1.291-1.931v-0.641h-0.026
		c-0.208,0.495-0.677,0.771-1.213,0.771c-1.122,0-1.853-1.265-1.853-3.117c0-2.321,1.057-3.274,1.997-3.274
		c0.665,0,0.978,0.443,1.173,0.797h0.026l0.053-0.705h0.887c-0.013,0.432-0.052,0.992-0.052,1.972V246.072L28.77,246.072z"/>
	<path d="M31.547,243.725c0,1.043,0.183,2.465,1.095,2.465c0.861,0,1.043-1.474,1.043-2.465c0-0.966-0.183-2.453-1.069-2.453
		C31.716,241.271,31.547,242.759,31.547,243.725L31.547,243.725z M34.689,243.725c0,2.438-1.121,3.262-2.1,3.262
		c-1.135,0-2.048-1.03-2.048-3.25c0-2.295,1.031-3.26,2.113-3.26C33.791,240.477,34.689,241.532,34.689,243.725L34.689,243.725z"/>
	<path d="M36.294,245.837c0.222,0.144,0.613,0.326,1.017,0.326c0.562,0,0.927-0.353,0.927-0.912c0-0.483-0.17-0.81-0.809-1.239
		c-0.821-0.521-1.265-1.07-1.265-1.787c0-1.031,0.756-1.748,1.734-1.748c0.496,0,0.861,0.17,1.122,0.325l-0.261,0.757
		c-0.248-0.17-0.509-0.287-0.848-0.287c-0.535,0-0.809,0.394-0.809,0.811c0,0.418,0.156,0.65,0.782,1.083
		c0.731,0.47,1.305,1.043,1.305,1.918c0,1.267-0.861,1.878-1.905,1.878c-0.456,0-0.965-0.145-1.239-0.363L36.294,245.837
		L36.294,245.837z"/>
	<path d="M43.584,246.881v-6.313h1.004v6.313H43.584L43.584,246.881z M44.667,238.938c0,0.393-0.235,0.651-0.613,0.651
		c-0.326,0-0.573-0.261-0.573-0.651c0-0.392,0.26-0.65,0.587-0.65C44.431,238.285,44.667,238.546,44.667,238.938L44.667,238.938z"/>
	<path d="M46.635,242.198c0-0.743-0.04-1.122-0.052-1.632h0.874l0.052,0.771h0.026c0.273-0.508,0.782-0.86,1.448-0.86
		c0.874,0,1.526,0.641,1.526,2.166v4.238h-1.004v-4.058c0-0.757-0.145-1.499-0.875-1.499c-0.417,0-0.822,0.354-0.939,1.018
		c-0.039,0.156-0.052,0.352-0.052,0.573v3.966h-1.004L46.635,242.198L46.635,242.198z"/>
	<path d="M55.778,240.566l0.795,3.549c0.091,0.43,0.196,0.992,0.274,1.539h0.039c0.065-0.521,0.169-1.057,0.261-1.539l0.783-3.549
		h0.99l-1.655,6.313h-0.887l-1.644-6.313H55.778L55.778,240.566z"/>
	<path d="M62.964,243.07c0.012-1.25-0.457-1.813-0.939-1.813c-0.665,0-0.992,0.952-1.031,1.813H62.964L62.964,243.07z
		 M60.981,243.814c0,1.941,0.77,2.349,1.487,2.349c0.443,0,0.795-0.104,1.043-0.235l0.17,0.731c-0.353,0.183-0.887,0.3-1.396,0.3
		c-1.513,0-2.295-1.238-2.295-3.17c0-2.035,0.874-3.313,2.139-3.313c1.278,0,1.8,1.354,1.8,2.766c0,0.248-0.013,0.417-0.026,0.572
		H60.981L60.981,243.814z"/>
	<path d="M68.742,246.725c-0.222,0.131-0.601,0.234-1.044,0.234c-1.382,0-2.309-1.107-2.309-3.195c0-1.813,0.913-3.287,2.492-3.287
		c0.339,0,0.704,0.092,0.887,0.194l-0.196,0.822c-0.13-0.063-0.392-0.169-0.717-0.169c-1.018,0-1.461,1.199-1.461,2.438
		c0,1.475,0.561,2.361,1.487,2.361c0.26,0,0.496-0.053,0.717-0.17L68.742,246.725L68.742,246.725z"/>
	<path d="M71.675,239.093v1.476h1.213v0.758h-1.213v3.757c0,0.819,0.287,1.043,0.653,1.043c0.169,0,0.3-0.015,0.404-0.039
		l0.052,0.771c-0.183,0.064-0.417,0.104-0.744,0.104c-0.404,0-0.757-0.104-0.991-0.379c-0.261-0.286-0.379-0.717-0.379-1.591v-3.665
		H69.9v-0.758h0.77V239.5L71.675,239.093L71.675,239.093z"/>
	<path d="M75.053,243.725c0,1.043,0.183,2.465,1.096,2.465c0.861,0,1.043-1.474,1.043-2.465c0-0.966-0.183-2.453-1.07-2.453
		C75.223,241.271,75.053,242.759,75.053,243.725L75.053,243.725z M78.196,243.725c0,2.438-1.121,3.262-2.1,3.262
		c-1.135,0-2.048-1.03-2.048-3.25c0-2.295,1.03-3.26,2.113-3.26C77.297,240.477,78.196,241.532,78.196,243.725L78.196,243.725z"/>
	<path d="M79.956,242.198c0-0.535-0.039-1.161-0.052-1.632h0.9l0.052,1.006h0.026c0.208-0.602,0.744-1.098,1.331-1.098
		c0.078,0,0.144,0,0.209,0.014v1.019c-0.065,0-0.131,0-0.209,0c-0.639,0-1.109,0.587-1.212,1.304c-0.026,0.17-0.04,0.367-0.04,0.574
		v3.496h-1.004L79.956,242.198L79.956,242.198z"/>
	<path d="M86.764,246.881v-5.557h-0.795v-0.758h0.795v-0.377c0-0.691,0.104-1.383,0.561-1.904c0.365-0.405,0.874-0.535,1.266-0.535
		c0.339,0,0.6,0.064,0.783,0.156l-0.157,0.783c-0.13-0.055-0.3-0.104-0.56-0.104c-0.717,0-0.887,0.771-0.887,1.578v0.403h1.147
		v0.758H87.77v5.557H86.764L86.764,246.881z"/>
	<path d="M90.872,243.725c0,1.043,0.183,2.465,1.097,2.465c0.861,0,1.043-1.474,1.043-2.465c0-0.966-0.182-2.453-1.069-2.453
		C91.042,241.271,90.872,242.759,90.872,243.725L90.872,243.725z M94.016,243.725c0,2.438-1.122,3.262-2.1,3.262
		c-1.135,0-2.047-1.03-2.047-3.25c0-2.295,1.029-3.26,2.112-3.26C93.116,240.477,94.016,241.532,94.016,243.725L94.016,243.725z"/>
	<path d="M95.776,242.198c0-0.535-0.038-1.161-0.052-1.632h0.9l0.052,1.006h0.026c0.208-0.602,0.743-1.098,1.33-1.098
		c0.078,0,0.144,0,0.21,0.014v1.019c-0.066,0-0.134,0-0.21,0c-0.639,0-1.108,0.587-1.213,1.304c-0.026,0.17-0.039,0.367-0.039,0.574
		v3.496h-1.005L95.776,242.198L95.776,242.198z"/>
	<path d="M99.676,242.198c0-0.743-0.039-1.122-0.053-1.632h0.873l0.053,0.783h0.025c0.273-0.511,0.756-0.875,1.422-0.875
		c0.588,0,1.084,0.272,1.316,0.965h0.023c0.172-0.313,0.394-0.572,0.627-0.717c0.248-0.171,0.55-0.248,0.875-0.248
		c0.849,0,1.515,0.612,1.515,2.23v4.174h-0.992v-3.952c0-0.821-0.116-1.616-0.888-1.616c-0.416,0-0.782,0.353-0.928,0.953
		c-0.023,0.154-0.037,0.352-0.037,0.56v4.058h-0.99v-4.136c0-0.69-0.118-1.435-0.874-1.435c-0.418,0-0.822,0.353-0.938,1.029
		c-0.025,0.156-0.039,0.34-0.039,0.534v4.005h-0.99V242.198L99.676,242.198z"/>
	<path d="M110.762,243.605c-0.523,0-1.735,0.104-1.735,1.476c0,0.835,0.417,1.121,0.769,1.121c0.443,0,0.812-0.326,0.929-0.951
		c0.024-0.118,0.04-0.248,0.04-0.366L110.762,243.605L110.762,243.605z M111.74,245.445c0,0.48,0.015,1.031,0.064,1.436h-0.899
		l-0.064-0.665h-0.038c-0.274,0.482-0.72,0.771-1.267,0.771c-0.834,0-1.486-0.704-1.486-1.801c0-1.593,1.266-2.283,2.688-2.297
		v-0.195c0-0.848-0.222-1.422-1.004-1.422c-0.393,0-0.743,0.117-1.043,0.328l-0.223-0.707c0.273-0.193,0.848-0.416,1.474-0.416
		c1.267,0,1.802,0.821,1.802,2.23L111.74,245.445L111.74,245.445z"/>
	<path d="M114.92,239.093v1.476h1.215v0.758h-1.215v3.757c0,0.819,0.289,1.043,0.65,1.043c0.172,0,0.303-0.015,0.405-0.039
		l0.053,0.771c-0.184,0.064-0.418,0.104-0.741,0.104c-0.406,0-0.76-0.104-0.992-0.379c-0.262-0.286-0.379-0.717-0.379-1.591v-3.665
		h-0.771v-0.758h0.771V239.5L114.92,239.093L114.92,239.093z"/>
	<path d="M122.72,243.605c-0.521,0-1.734,0.104-1.734,1.476c0,0.835,0.417,1.121,0.771,1.121c0.443,0,0.81-0.326,0.927-0.951
		c0.024-0.118,0.039-0.248,0.039-0.366L122.72,243.605L122.72,243.605z M123.7,245.445c0,0.48,0.012,1.031,0.064,1.436h-0.898
		l-0.066-0.665h-0.037c-0.274,0.482-0.719,0.771-1.268,0.771c-0.834,0-1.486-0.704-1.486-1.801c0-1.593,1.266-2.283,2.688-2.297
		v-0.195c0-0.848-0.222-1.422-1.005-1.422c-0.393,0-0.742,0.117-1.043,0.328l-0.225-0.707c0.275-0.193,0.85-0.416,1.476-0.416
		c1.269,0,1.802,0.821,1.802,2.23v2.738H123.7z"/>
	<path d="M126.151,240.566l0.796,3.549c0.093,0.43,0.195,0.992,0.273,1.539h0.038c0.063-0.521,0.17-1.057,0.262-1.539l0.783-3.549
		h0.99l-1.655,6.313h-0.888l-1.646-6.313H126.151L126.151,240.566z"/>
	<path d="M133.049,243.605c-0.521,0-1.733,0.104-1.733,1.476c0,0.835,0.418,1.121,0.771,1.121c0.442,0,0.81-0.326,0.927-0.951
		c0.024-0.118,0.036-0.248,0.036-0.366V243.605L133.049,243.605z M134.028,245.445c0,0.48,0.014,1.031,0.066,1.436h-0.9
		l-0.064-0.665h-0.041c-0.271,0.482-0.715,0.771-1.264,0.771c-0.836,0-1.488-0.704-1.488-1.801c0-1.593,1.268-2.283,2.688-2.297
		v-0.195c0-0.848-0.224-1.422-1.005-1.422c-0.393,0-0.743,0.117-1.043,0.328l-0.223-0.707c0.272-0.193,0.849-0.416,1.476-0.416
		c1.265,0,1.799,0.821,1.799,2.23L134.028,245.445L134.028,245.445z"/>
	<path d="M136.101,246.881v-6.313h1.004v6.313H136.101L136.101,246.881z M137.184,238.938c0,0.393-0.234,0.651-0.613,0.651
		c-0.326,0-0.574-0.261-0.574-0.651c0-0.392,0.262-0.65,0.588-0.65C136.95,238.285,137.184,238.546,137.184,238.938L137.184,238.938
		z"/>
	<polygon points="139.152,237.854 140.159,237.854 140.159,246.881 139.152,246.881 	"/>
	<path d="M144.644,243.605c-0.522,0-1.733,0.104-1.733,1.476c0,0.835,0.416,1.121,0.77,1.121c0.441,0,0.81-0.326,0.927-0.951
		c0.024-0.118,0.039-0.248,0.039-0.366L144.644,243.605L144.644,243.605z M145.624,245.445c0,0.48,0.014,1.031,0.064,1.436h-0.9
		l-0.063-0.665h-0.039c-0.272,0.482-0.72,0.771-1.267,0.771c-0.836,0-1.485-0.704-1.485-1.801c0-1.593,1.265-2.283,2.688-2.297
		v-0.195c0-0.848-0.224-1.422-1.004-1.422c-0.394,0-0.744,0.117-1.046,0.328l-0.222-0.707c0.273-0.193,0.848-0.416,1.475-0.416
		c1.266,0,1.801,0.821,1.801,2.23v2.738H145.624z"/>
	<path d="M148.672,244.663c0,0.144,0.014,0.274,0.039,0.392c0.234,0.926,0.666,1.096,0.953,1.096c0.809,0,1.096-1.096,1.096-2.438
		c0-1.268-0.301-2.374-1.121-2.374c-0.471,0-0.85,0.574-0.939,1.122c-0.014,0.145-0.025,0.286-0.025,0.432v1.771L148.672,244.663
		L148.672,244.663z M147.682,237.854h0.99v3.473h0.027c0.324-0.627,0.795-0.85,1.342-0.85c0.992,0,1.724,1.123,1.724,3.195
		c0,2.27-0.938,3.313-1.918,3.313c-0.666,0-1.005-0.392-1.253-0.926h-0.053l-0.064,0.821h-0.848
		c0.014-0.364,0.053-1.083,0.053-1.514V237.854L147.682,237.854z"/>
	<polygon points="153.551,237.854 154.555,237.854 154.555,246.881 153.551,246.881 	"/>
	<path d="M159.379,243.07c0.014-1.25-0.455-1.813-0.938-1.813c-0.666,0-0.989,0.952-1.028,1.813H159.379L159.379,243.07z
		 M157.398,243.814c0,1.941,0.771,2.349,1.487,2.349c0.443,0,0.795-0.104,1.043-0.235l0.169,0.731c-0.353,0.183-0.888,0.3-1.396,0.3
		c-1.515,0-2.298-1.238-2.298-3.17c0-2.035,0.875-3.313,2.142-3.313c1.276,0,1.8,1.354,1.8,2.766c0,0.248-0.013,0.417-0.025,0.572
		H157.398L157.398,243.814z"/>
	<path d="M166.004,239.093v1.476h1.213v0.758h-1.213v3.757c0,0.819,0.287,1.043,0.651,1.043c0.171,0,0.302-0.015,0.404-0.039
		l0.052,0.771c-0.183,0.064-0.417,0.104-0.742,0.104c-0.402,0-0.757-0.104-0.99-0.379c-0.262-0.286-0.379-0.717-0.379-1.591v-3.665
		h-0.771v-0.758H165V239.5L166.004,239.093L166.004,239.093z"/>
	<path d="M169.383,243.725c0,1.043,0.183,2.465,1.095,2.465c0.862,0,1.045-1.474,1.045-2.465c0-0.966-0.183-2.453-1.069-2.453
		C169.552,241.271,169.383,242.759,169.383,243.725L169.383,243.725z M172.527,243.725c0,2.438-1.122,3.262-2.101,3.262
		c-1.135,0-2.047-1.03-2.047-3.25c0-2.295,1.029-3.26,2.113-3.26C171.627,240.477,172.527,241.532,172.527,243.725L172.527,243.725z
		"/>
	<path d="M179.803,242.98c0-0.131,0-0.287-0.014-0.418c-0.063-0.664-0.455-1.228-0.938-1.228c-0.835,0-1.122,1.161-1.122,2.413
		c0,1.331,0.34,2.398,1.068,2.398c0.313,0,0.744-0.17,0.966-1.082c0.024-0.119,0.038-0.262,0.038-0.418v-1.666H179.803z
		 M180.793,237.854v7.516c0,0.431,0.041,1.146,0.054,1.514h-0.86l-0.064-0.781h-0.039c-0.209,0.441-0.65,0.887-1.329,0.887
		c-1.06,0-1.826-1.147-1.826-3.234c0-2.23,0.926-3.273,1.894-3.273c0.469,0,0.912,0.209,1.158,0.742h0.025v-3.365h0.988V237.854
		L180.793,237.854z"/>
	<path d="M183.584,243.725c0,1.043,0.184,2.465,1.096,2.465c0.861,0,1.045-1.474,1.045-2.465c0-0.966-0.184-2.453-1.07-2.453
		C183.754,241.271,183.584,242.759,183.584,243.725L183.584,243.725z M186.728,243.725c0,2.438-1.121,3.262-2.101,3.262
		c-1.135,0-2.047-1.03-2.047-3.25c0-2.295,1.029-3.26,2.111-3.26C185.831,240.477,186.728,241.532,186.728,243.725L186.728,243.725z
		"/>
	<path d="M188.918,240.566l0.611,3.092c0.133,0.679,0.264,1.355,0.34,2.009h0.053c0.092-0.651,0.248-1.383,0.392-1.981l0.729-3.117
		h0.771l0.69,3.024c0.156,0.705,0.301,1.37,0.402,2.074h0.053c0.08-0.664,0.195-1.317,0.34-2.034l0.601-3.064h1.005l-1.592,6.313
		h-0.818l-0.73-3.065c-0.156-0.611-0.248-1.172-0.352-1.892h-0.027c-0.104,0.743-0.221,1.331-0.365,1.933l-0.757,3.024h-0.849
		l-1.537-6.313h1.041V240.566L188.918,240.566z"/>
	<path d="M196.445,242.198c0-0.743-0.039-1.122-0.052-1.632h0.873l0.052,0.771h0.026c0.273-0.508,0.783-0.86,1.447-0.86
		c0.875,0,1.524,0.641,1.524,2.166v4.238h-1.003v-4.058c0-0.757-0.146-1.499-0.875-1.499c-0.417,0-0.82,0.354-0.938,1.018
		c-0.039,0.156-0.054,0.352-0.054,0.573v3.966h-1.004L196.445,242.198L196.445,242.198z"/>
	<polygon points="202.377,237.854 203.381,237.854 203.381,246.881 202.377,246.881 	"/>
	<path d="M206.25,243.725c0,1.043,0.185,2.465,1.097,2.465c0.86,0,1.044-1.474,1.044-2.465c0-0.966-0.184-2.453-1.069-2.453
		C206.42,241.271,206.25,242.759,206.25,243.725L206.25,243.725z M209.395,243.725c0,2.438-1.122,3.262-2.1,3.262
		c-1.135,0-2.049-1.03-2.049-3.25c0-2.295,1.03-3.26,2.112-3.26C208.497,240.477,209.395,241.532,209.395,243.725L209.395,243.725z"
		/>
	<path d="M213.516,243.605c-0.521,0-1.734,0.104-1.734,1.476c0,0.835,0.418,1.121,0.771,1.121c0.441,0,0.809-0.326,0.926-0.951
		c0.025-0.118,0.039-0.248,0.039-0.366L213.516,243.605L213.516,243.605z M214.495,245.445c0,0.48,0.014,1.031,0.064,1.436h-0.898
		l-0.064-0.665h-0.039c-0.273,0.482-0.719,0.771-1.268,0.771c-0.834,0-1.484-0.704-1.484-1.801c0-1.593,1.265-2.283,2.688-2.297
		v-0.195c0-0.848-0.222-1.422-1.005-1.422c-0.392,0-0.743,0.117-1.043,0.328l-0.223-0.707c0.272-0.193,0.848-0.416,1.474-0.416
		c1.268,0,1.803,0.821,1.803,2.23v2.738H214.495L214.495,245.445z"/>
	<path d="M219.374,242.98c0-0.131,0-0.287-0.016-0.418c-0.063-0.664-0.455-1.228-0.938-1.228c-0.836,0-1.121,1.161-1.121,2.413
		c0,1.331,0.338,2.398,1.068,2.398c0.313,0,0.742-0.17,0.965-1.082c0.024-0.119,0.041-0.262,0.041-0.418V242.98L219.374,242.98z
		 M220.364,237.854v7.516c0,0.431,0.039,1.146,0.053,1.514h-0.86l-0.063-0.781h-0.039c-0.209,0.441-0.652,0.887-1.33,0.887
		c-1.058,0-1.826-1.147-1.826-3.234c0-2.23,0.927-3.273,1.893-3.273c0.469,0,0.912,0.209,1.16,0.742h0.025v-3.365h0.99v-0.004
		H220.364z"/>
	<path d="M225.333,246.881v-5.557h-0.797v-0.758h0.797v-0.377c0-0.691,0.104-1.383,0.562-1.904c0.364-0.405,0.874-0.535,1.267-0.535
		c0.34,0,0.6,0.064,0.782,0.156l-0.155,0.783c-0.133-0.055-0.302-0.104-0.563-0.104c-0.719,0-0.889,0.771-0.889,1.578v0.403h1.147
		v0.758h-1.147v5.557H225.333L225.333,246.881z"/>
	<path d="M229.44,243.725c0,1.043,0.184,2.465,1.096,2.465c0.86,0,1.045-1.474,1.045-2.465c0-0.966-0.185-2.453-1.068-2.453
		C229.609,241.271,229.44,242.759,229.44,243.725L229.44,243.725z M232.583,243.725c0,2.438-1.121,3.262-2.101,3.262
		c-1.135,0-2.047-1.03-2.047-3.25c0-2.295,1.03-3.26,2.112-3.26C231.683,240.477,232.583,241.532,232.583,243.725L232.583,243.725z"
		/>
	<path d="M234.342,242.198c0-0.535-0.037-1.161-0.051-1.632h0.898l0.053,1.006h0.024c0.209-0.602,0.743-1.098,1.33-1.098
		c0.077,0,0.146,0,0.211,0.014v1.019c-0.065,0-0.134,0-0.211,0c-0.64,0-1.106,0.587-1.212,1.304
		c-0.026,0.17-0.039,0.367-0.039,0.574v3.496h-1.006v-4.683H234.342z"/>
	<path d="M241.151,246.881v-5.557h-0.795v-0.758h0.795v-0.377c0-0.691,0.104-1.383,0.561-1.904c0.367-0.405,0.875-0.535,1.268-0.535
		c0.339,0,0.602,0.064,0.782,0.156l-0.155,0.783c-0.132-0.055-0.3-0.104-0.563-0.104c-0.717,0-0.888,0.771-0.888,1.578v0.403h1.149
		v0.758h-1.149v5.557H241.151L241.151,246.881z"/>
	<path d="M244.555,242.198c0-0.535-0.039-1.161-0.053-1.632h0.898l0.055,1.006h0.023c0.209-0.602,0.743-1.098,1.331-1.098
		c0.077,0,0.146,0,0.208,0.014v1.019c-0.063,0-0.131,0-0.208,0c-0.642,0-1.108,0.587-1.214,1.304
		c-0.025,0.17-0.039,0.367-0.039,0.574v3.496h-1.004L244.555,242.198L244.555,242.198z"/>
	<path d="M250.958,243.07c0.015-1.25-0.455-1.813-0.938-1.813c-0.666,0-0.991,0.952-1.03,1.813H250.958L250.958,243.07z
		 M248.975,243.814c0,1.941,0.771,2.349,1.488,2.349c0.441,0,0.795-0.104,1.043-0.235l0.17,0.731c-0.354,0.183-0.887,0.3-1.396,0.3
		c-1.514,0-2.296-1.238-2.296-3.17c0-2.035,0.874-3.313,2.14-3.313c1.277,0,1.801,1.354,1.801,2.766
		c0,0.248-0.014,0.417-0.025,0.572H248.975L248.975,243.814z"/>
	<path d="M256.345,243.07c0.013-1.25-0.456-1.813-0.938-1.813c-0.666,0-0.992,0.952-1.031,1.813H256.345L256.345,243.07z
		 M254.362,243.814c0,1.941,0.77,2.349,1.488,2.349c0.441,0,0.795-0.104,1.043-0.235l0.169,0.731c-0.353,0.183-0.888,0.3-1.396,0.3
		c-1.516,0-2.297-1.238-2.297-3.17c0-2.035,0.875-3.313,2.141-3.313c1.279,0,1.8,1.354,1.8,2.766c0,0.248-0.015,0.417-0.024,0.572
		H254.362L254.362,243.814z"/>
	<path d="M63.716,96.15l-4.97,12.354c-3.362,8.043-11.332,7.542-16.703,1.846l0.852-3.176c7.133,13.484,19.074,2.891,12.744-6.49
		l-9.285-12.849c-6.328-8.539-10.137,0.5-6.625,3.791l5.213,4.603c3.833,3.18,2.553,9.938-2.406,10.541
		c-2.287,0.278-4.905-0.896-6.474-2.16l-0.428,1.709h-10.16c0.181-0.389,0.378-1.101,0.374-1.649L25.822,84.98
		c0.012-0.36-0.189-0.383-0.304-0.086L16.572,107.3l-3.948-20.304c-0.131-0.501-0.401-0.032-0.401-0.032
		c-0.664,1.074-3.586,5.861-4.107,6.683c-0.389,0.607-0.547,1.016-0.841,2.011c-0.15,0.495-3.354,15.563-3.496,16.151
		c-0.132,0.537,0.05,1.623,0.292,1.896H0.906c0.112-0.104,0.625-0.81,0.749-1.356L4.172,97.13c0.563-2.993-0.154-6.03-0.154-6.03
		C2.46,80.46,2.121,75.869,1.307,75.148H3.94c0.078,0.56,3.108,17.314,3.297,18.127c-0.189,0.343,10.074-17.979,10.074-17.979h2.661
		c0,0-1.33,1.464-1.565,1.845c-0.208,0.314-3.405,5.424-3.806,6.06l3.058,19.245l6.62-18.528h11.012v2.097
		c-1.207-0.699-5.394-1.556-7.049-1.304l-0.157,9.341c0.008,0.514,0,0.555,0.397,0.555l6.821-0.008v1.289h-7.299l-0.228,9.033
		c0,0.622,0.386,0.686,0.722,0.699c2.853,0.131,5.544-0.313,7.53-1.325l0.471-2.021c2.197,3.143,3.975,4.265,6.289,3.467
		c2.229-0.758,4.36-4.313,0.266-7.646l-3.984-3.296c-5.517-4.873-0.855-15.407,6.964-10.134c-0.027-9.174,9.967-13.754,17.02-6.748
		l-0.691,3.016c-6.23-11.824-17.64-2.102-12.364,6.338l7.468,11.416c1.677,2.461,1.962,4.236,1.962,4.236l8.795-19.669l4.372,21.382
		c0.158,0.672,0.479,1.366,0.706,1.629c-0.004,0-2.51,0-2.514,0c0.004,0-2.325-10.106-2.325-10.106L63.716,96.15 M64.206,94.759
		h3.941l-1.412-6.343L64.206,94.759 M194.403,84.188v1.588c-1.836-0.646-3.123-0.646-5.179-0.646l-0.613,19.841
		c-0.022,0.709,0.038,0.987,0.162,1.508c0,0-2.44-0.006-2.44-0.011c0.141-0.536,0.217-0.737,0.26-1.51l-0.111-19.828
		c0,0-3.434,0-3.441,0c-1.076,0-1.076,1.3-1.076,1.765c0,0-0.66,20.61-0.688,21.387c-0.237-0.405-13.808-20.67-13.808-20.67
		l0.009,18.867c0,0-1.263,0-1.644,0c0.234-0.613,0.25-1.24,0.285-2.058c0,0,0.521-17.596,0.521-18.157
		c-0.15-0.248-1.213-1.837-1.387-2.078c0.521,0,3.313,0,3.313,0l12.072,19.461V84.188H194.403 M78.954,83.971h3.308l12.072,19.461
		V83.971h14.656l1.222-6.514c0.134-0.871,0.134-1.402-0.215-1.911h3.437l-7.291,35.722c-0.183,0.82-0.134,1.537,1.044,1.562
		c3.611,0.062,11.063-0.703,14.035-1.896l-1.381,2.825h-16.698c0.263-0.401,0.505-1.149,0.744-2.174l4.723-25.64
		c-1.792-0.771-3.981-0.817-5.999-0.814l-0.578,19.408c-0.004,0.722,0.098,1.253,0.208,1.729c-0.012,0-2.538,0-2.553,0
		c0.183-0.561,0.237-1.029,0.265-1.826l-0.137-19.316h-3.162c-1.037,0.031-0.825,1.118-0.852,1.586l-0.826,21.364L81.167,87.396
		l0.007,18.867c0,0-1.851,0-1.824,0c0.173-0.309,0.432-1.281,0.467-2.054l0.517-18.158L78.954,83.971 M74.551,106.264
		c0-0.005-0.306-20.336-0.306-20.336c0-0.726-0.362-1.537-0.721-1.957h3.101l-0.197,21.004c-0.031,0.284,0.304,1.217,0.451,1.289
		C76.841,106.259,74.551,106.264,74.551,106.264 M140.897,84.124c16.537-2.831,12.43,10.444,6.697,11.722
		c0,0,6.939,9.949,7.205,10.387c0-0.066-0.195-19.902-0.195-19.902c-0.043-1.602-0.629-2.268-0.629-2.268h9.908v2.268
		c0,0-2.103-1.207-6.739-1.239l-0.188,9.685h6.931v1.34h-6.931v8.813c0,0.698,0.506,0.649,0.879,0.649
		c4.522,0,7.343-1.183,7.343-1.183l-0.804,2.104c0,0-8.692,0.016-9.291,0c0.276,0.542,2.596,3.438,4.105,4.521
		c-0.744-0.344-3.855-1.648-4.997-3.104c-0.37-0.476-8.711-10.767-9.323-11.604c8.498-1.816,5.627-13.461-0.781-11.502
		l-0.906,21.424h-2.58c0.193-0.323,0.355-1.041,0.429-1.783l0.45-17.963C141.467,85.221,141.202,84.564,140.897,84.124
		 M128.847,99.952c0.026,7.709,7.87,7.962,7.885-0.438l0.013-15.453l2.183,0.006c-0.544,0.51-0.743,2.82-0.853,4.72
		c-0.035,0.653-0.425,10.293-0.471,11.237c-0.594,10.349-10.402,8.846-10.857,0.891c-0.05-0.87-0.213-14.146-0.268-14.616
		c-0.055-1.086-0.266-1.985-0.662-2.233c0.288,0,3.004,0,3.004,0L128.847,99.952 M109.827,106.232
		c0.205-0.244,0.651-0.998,0.871-1.436l9.586-22.014l4.377,21.656c0,0,0.521,1.582,0.775,1.789c-0.32,0-1.867,0-2.291,0
		c-0.159-0.623-2.475-10.215-2.475-10.215h-4.893c0,0-3.865,9.937-3.975,10.215C111.485,106.232,109.935,106.232,109.827,106.232
		L109.827,106.232z M116.258,94.867h4.133l-1.542-6.719L116.258,94.867"/>
	<path d="M99.197,51.43c5.331-1.258,6.869-9.52,2.187-12.472C100.601,43.062,99.958,47.303,99.197,51.43L99.197,51.43z
		 M93.412,27.386c0.736-3.559,0.436-6.965-1.158-9.386C89.089,20.23,90.213,26.035,93.412,27.386L93.412,27.386z M95.469,16.072
		c0.478,1.451,0.723,3.134,1.414,4.372c1.018-1.811,2.229-3.429,3.215-5.271C98.545,14.959,96.705,15.542,95.469,16.072
		L95.469,16.072z M81.583,52.973c0-0.472,0-0.943,0-1.415c0.59-0.953,0.476-2.61,0.901-3.729c2.907,2.835,6.214,5.271,12.471,4.757
		c0.999-5.343,1.903-10.782,2.7-16.329c-0.484-0.502-1.018-0.954-1.801-1.157c-0.21,1.648-0.294,3.91-0.256,5.4
		c-1.629,0-3.258,0-4.886,0c1.294-1.834,1.455-4.802,1.8-7.585C90.328,30.986,87.72,29.75,86.597,27
		c-2.16-5.294,2.226-9.339,5.014-11.7c-1.086-3.22-2.568-7.306-3.729-10.929C87.272,2.466,87.076,0.649,85.439,0
		c1.757,0,3.516,0,5.272,0c1.422,4.577,2.736,9.264,4.114,13.886c2.033-0.496,4.05-1.007,6.686-0.9
		c2.813-4.257,5.571-8.574,8.229-12.986c1.327,0,2.655,0,3.985,0c0,0.128,0,0.257,0,0.386c-0.043,0-0.086,0-0.129,0
		c-2.925,4.362-6.3,8.273-9.001,12.857c1.994,0.406,4.021,0.781,5.656,1.542c-0.139,1.37-0.521,3.587-1.156,4.886
		c-1.588-1.885-3.641-3.303-6.172-4.243c-1.93,2.227-3.549,4.766-5.271,7.2c-0.158,2.585-0.598,4.888-1.029,7.201
		c0.511,0.561,1.241,0.902,1.929,1.285c0.331-1.512,0.388-3.298,0.899-4.628c1.293,0.078,2.903-0.162,3.984,0.128
		c-0.331,2.368-0.801,4.6-1.156,6.943c2.426,2.258,5.106,4.235,5.528,8.229c0.731,6.927-4.538,10.987-9.129,13.115
		c-0.649,3.125-1.172,7.054-1.414,10.158c3.603,0.543,10.466-0.324,15.3-1.67c-0.313,1.229-0.852,2.232-1.027,3.598
		c-6.558,0-13.113,0-19.67,0c1.445-3.185,2.261-7.678,2.571-11.569C89.14,56.076,84.858,54.751,81.583,52.973L81.583,52.973z"/>
</g>
</svg>
