<?xml version="1.0" encoding="utf-8"?>
<!-- Generator: Adobe Illustrator 16.0.0, SVG Export Plug-In . SVG Version: 6.00 Build 0)  -->
<!DOCTYPE svg PUBLIC "-//W3C//DTD SVG 1.1//EN" "http://www.w3.org/Graphics/SVG/1.1/DTD/svg11.dtd">
<svg version="1.1" id="Layer_1" focusable="false" xmlns="http://www.w3.org/2000/svg" xmlns:xlink="http://www.w3.org/1999/xlink"
	 x="0px" y="0px" width="788px" height="636px" viewBox="0 0 788 636" enable-background="new 0 0 788 636" xml:space="preserve">
<g enable-background="new    ">
	<path d="M137.588,366.884H110.69l-1.25,9.924c0,0.216-0.076,0.54-0.226,0.972c-0.607,2.085-0.909,3.955-0.909,5.609
		c0,2.593,1.681,4.788,5.043,6.587c1.788,0.937,2.895,1.907,3.325,2.914c0.428,1.008,0.644,2.662,0.644,4.964
		c0,2.95-0.162,4.731-0.484,5.342c-0.324,0.611-1.094,0.917-2.313,0.917H86.124c-1.578,0-2.366-1.654-2.366-4.964
		c0-3.956,1.258-7.157,3.777-9.604c2.374-2.229,3.74-4.603,4.101-7.121l19.985-127.002c0.359-1.942,0.54-3.634,0.54-5.074
		c0-2.23-1.553-4.21-4.655-5.937c-1.443-0.863-2.165-2.771-2.165-5.721c0-3.957,0.216-6.404,0.647-7.34s1.582-1.404,3.452-1.404
		h41.208c2.516,0,4.278,1.187,5.284,3.562c1.007,2.373,2.013,7.553,3.021,15.539c0.432,3.094,0.863,6.15,1.296,9.172l17.714,118.594
		c0.863,5.756,2.984,10.143,6.367,13.164c0.934,0.793,1.546,1.422,1.834,1.889c0.287,0.469,0.432,1.889,0.432,4.263
		c0,3.669-0.251,5.918-0.754,6.744c-0.502,0.828-1.58,1.241-3.23,1.241h-47.925c-1.437,0-2.153-1.366-2.153-4.101
		c0-3.453,0.179-5.611,0.536-6.475s1.395-1.87,3.111-3.021c2.502-1.587,3.755-3.606,3.755-6.059
		C139.936,381.941,139.153,376.084,137.588,366.884z M124.673,270.139l-12.191,84.335h23.995L124.673,270.139z"/>
	<path d="M240.768,391.919h6.151c3.165,0,5.503-1.259,7.014-3.777c1.511-2.518,3.489-8.345,5.935-17.481
		c0.863-3.524,1.905-5.665,3.129-6.421c1.223-0.755,3.308-1.133,6.259-1.133c3.237,0,5.323,0.27,6.259,0.81
		c0.934,0.539,1.403,1.529,1.403,2.968c0,1.008-0.18,2.626-0.54,4.855l-3.777,25.791c-0.432,2.662-0.99,4.424-1.672,5.287
		c-0.685,0.863-2.069,1.295-4.155,1.295h-71.005c-3.021,0-4.532-1.87-4.532-5.611c0-2.877,0.197-4.729,0.593-5.558
		c0.395-0.826,1.241-1.456,2.536-1.888c4.101-1.295,6.151-5.072,6.151-11.331V251.527c0-2.661-1.295-4.567-3.885-5.72
		c-2.23-0.934-3.598-1.978-4.101-3.129c-0.504-1.15-0.755-3.057-0.755-5.719c0-3.165,0.216-5.126,0.647-5.882
		c0.432-0.755,1.582-1.133,3.453-1.133h49.747c1.87,0,3.146,0.45,3.831,1.349c0.683,0.9,1.025,3.328,1.025,7.284
		c0,2.374-0.234,3.976-0.701,4.802c-0.469,0.828-1.673,1.564-3.615,2.213c-3.598,1.224-5.396,3.598-5.396,7.121V391.919z"/>
	<path d="M333.229,366.884h-26.898l-1.25,9.924c0,0.216-0.076,0.54-0.226,0.972c-0.607,2.085-0.909,3.955-0.909,5.609
		c0,2.593,1.681,4.788,5.043,6.587c1.788,0.937,2.895,1.907,3.325,2.914c0.428,1.008,0.644,2.662,0.644,4.964
		c0,2.95-0.162,4.731-0.484,5.342c-0.324,0.611-1.094,0.917-2.313,0.917h-28.397c-1.578,0-2.366-1.654-2.366-4.964
		c0-3.956,1.258-7.157,3.777-9.604c2.374-2.229,3.74-4.603,4.101-7.121l19.985-127.002c0.359-1.942,0.54-3.634,0.54-5.074
		c0-2.23-1.553-4.21-4.655-5.937c-1.443-0.863-2.165-2.771-2.165-5.721c0-3.957,0.216-6.404,0.647-7.34s1.582-1.404,3.452-1.404
		h41.208c2.516,0,4.278,1.187,5.284,3.562c1.007,2.373,2.013,7.553,3.021,15.539c0.432,3.094,0.863,6.15,1.296,9.172l17.714,118.594
		c0.863,5.756,2.984,10.143,6.367,13.164c0.934,0.793,1.546,1.422,1.834,1.889c0.287,0.469,0.432,1.889,0.432,4.263
		c0,3.669-0.251,5.918-0.754,6.744c-0.502,0.828-1.58,1.241-3.23,1.241h-47.925c-1.437,0-2.153-1.366-2.153-4.101
		c0-3.453,0.179-5.611,0.536-6.475s1.395-1.87,3.111-3.021c2.502-1.587,3.755-3.606,3.755-6.059
		C335.577,381.941,334.794,376.084,333.229,366.884z M320.314,270.139l-12.191,84.335h23.995L320.314,270.139z"/>
	<path d="M464.033,304.835c13.166,4.604,22.23,10.306,27.193,17.104c4.965,6.799,7.445,16.17,7.445,28.111
		c0,18.201-4.568,31.762-13.703,40.682c-9.137,8.921-23.273,13.381-42.408,13.381h-52.769c-2.158,0-3.237-1.114-3.237-3.346v-6.475
		c0-1.797,0.971-3.129,2.914-3.992c4.1-1.942,6.151-4.783,6.151-8.525V251.527c0-1.798-0.289-3.021-0.863-3.669
		c-0.577-0.647-2.303-1.654-5.18-3.021c-1.44-0.647-2.285-1.366-2.536-2.158c-0.252-0.791-0.377-2.733-0.377-5.827
		c0-2.733,0.377-4.567,1.133-5.503c0.755-0.935,2.067-1.403,3.938-1.403h59.135c14.244,0,25.178,3.634,32.805,10.899
		c7.625,7.267,11.438,16.51,11.438,27.732c0,9.353-3.004,17.194-9.01,23.524C480.094,298.433,472.738,302.677,464.033,304.835z
		 M435.762,242.14v56.652h5.719c3.598,0,6.42-1.042,8.471-3.129c2.051-2.086,3.238-5.558,3.561-10.414
		c0.324-4.855,0.486-10.988,0.486-18.398c0-10.359-0.99-17.066-2.967-20.125c-1.98-3.057-5.164-4.586-9.551-4.586H435.762z
		 M435.762,311.094v80.608c6.617,0,11.061-0.898,13.326-2.697c2.266-1.798,3.598-5.358,3.992-10.684
		c0.396-5.322,0.594-14.314,0.594-26.977c0-2.59-0.107-8.472-0.322-17.644c-0.217-9.173-0.648-14.693-1.295-16.564
		c-0.648-1.87-1.781-3.345-3.4-4.425c-1.619-1.078-4.01-1.618-7.176-1.618H435.762z"/>
	<path d="M577.771,326.093v56.545c0,2.879,1.834,4.965,5.504,6.26c1.58,0.576,2.678,1.17,3.291,1.78
		c0.609,0.611,0.916,3.147,0.916,7.607c0,2.734-0.287,4.389-0.863,4.964c-0.576,0.576-1.727,0.863-3.453,0.863h-51.148
		c-2.52,0-3.777-1.114-3.777-3.346V394.4c0-2.661,1.654-4.532,4.965-5.611c1.727-0.575,2.875-1.276,3.453-2.104
		c0.574-0.826,0.863-2.391,0.863-4.693v-53.092l-21.691-76.725c-1.078-3.813-3.094-6.33-6.043-7.554
		c-1.582-0.719-2.373-1.905-2.373-3.562v-8.201c0-1.941,1.041-2.913,3.127-2.913h45.727c1.293,0,2.156,0.36,2.588,1.079
		c0.432,0.72,0.648,2.627,0.648,5.719c0,3.095-0.127,5.056-0.377,5.882c-0.254,0.827-0.955,1.564-2.105,2.212
		c-1.656,1.079-2.482,2.446-2.482,4.099c0,0.935,0.18,2.014,0.541,3.236l14.148,48.062l14.473-48.084
		c0.146-0.43,0.221-1.111,0.221-2.045c0-2.295-1.43-4.662-4.285-7.102c-1.32-1.15-1.979-2.194-1.979-3.13v-6.366
		c0-2.375,1.047-3.562,3.141-3.562h23.723c2.164,0,3.248,1.187,3.248,3.562v6.798c0,1.224-0.791,2.411-2.373,3.562
		c-2.734,1.941-4.641,4.712-5.719,8.309L577.771,326.093z"/>
	<path d="M617.482,229.945h46.725c1.582,0,2.59,0.343,3.021,1.025c0.432,0.685,0.646,2.788,0.646,6.313
		c0,3.525-1.043,5.864-3.129,7.015c-1.584,0.864-2.645,1.765-3.184,2.7c-0.539,0.937-0.809,2.735-0.809,5.399V373.35
		c0,3.312,0.934,5.994,2.805,8.046s4.244,3.077,7.123,3.077c2.66,0,4.926-1.15,6.799-3.453c1.869-2.302,2.805-4.856,2.805-7.661
		V252.499c0-2.086-0.199-3.543-0.594-4.371c-0.396-0.826-1.385-1.852-2.967-3.075c-2.447-1.884-3.67-4.782-3.67-8.695
		c0-3.042,0.342-4.871,1.025-5.488c0.684-0.615,1.674-0.924,2.969-0.924h23.309c2.59,0,3.885,1.295,3.885,3.885v5.18
		c0,2.303-0.146,3.76-0.432,4.37c-0.289,0.612-1.117,1.17-2.482,1.673c-3.383,1.151-5.072,3.49-5.072,7.015v117.729
		c0,11.151-3.201,19.981-9.604,26.492c-6.404,6.512-15.324,9.766-26.762,9.766c-12.807,0-22.572-3.453-29.299-10.359
		s-10.088-16.869-10.088-29.892V252.067c0-3.021-1.584-5.251-4.748-6.691c-1.584-0.718-2.537-1.384-2.861-1.996
		c-0.322-0.61-0.484-1.924-0.484-3.938c0-4.172,0.25-6.798,0.756-7.878C613.668,230.485,615.107,229.945,617.482,229.945z"/>
</g>
</svg>
