<?xml version="1.0" encoding="utf-8"?>
<!-- Generator: Adobe Illustrator 16.0.0, SVG Export Plug-In . SVG Version: 6.00 Build 0)  -->
<!DOCTYPE svg PUBLIC "-//W3C//DTD SVG 1.1//EN" "http://www.w3.org/Graphics/SVG/1.1/DTD/svg11.dtd">
<svg version="1.1" id="Layer_1" focusable="false" xmlns="http://www.w3.org/2000/svg" xmlns:xlink="http://www.w3.org/1999/xlink"
	 x="0px" y="0px" width="788px" height="636px" viewBox="0 0 788 636" enable-background="new 0 0 788 636" xml:space="preserve">
<path d="M394,54.053C211.677,54.053,63.819,172.264,63.819,318c0,145.735,147.857,263.946,330.181,263.946
	S724.181,463.735,724.181,318C724.181,172.264,576.323,54.053,394,54.053z M293.382,474.942l-163.211,1.603l91.026-342.589h157.237
	c74.412,0,100.076,33.76,91.911,85.83c-0.433,2.723-1.022,5.417-1.769,8.071c-6.652-1.514-13.455-2.277-20.278-2.274
	c-49.902,0-90.366,39.922-90.366,89.141c0,43.764,31.979,80.126,74.152,87.727C410.591,446.237,365.908,474.234,293.382,474.942
	L293.382,474.942z M476.483,260.391h37.707l-26.112,106.416h-41.725l-13.186-41.984l-9.227,41.984h-44.576l31.379-106.416h36.929
	l17.676,43.304L476.483,260.391z M648.355,474.942H416.142l18.664-72.103c4.476,0.654,8.992,0.981,13.515,0.978
	c49.892,0,90.367-39.909,90.367-89.14c0-38.473-24.745-71.242-59.364-83.732l25.134-97.036h108.996l-62.511,241.982h122.394
	L648.355,474.942z M304.093,333.778h-29.105l-16.261,66.54h29.105c19.018,0,37.835-3.747,44.706-31.402
	C339.089,342.627,323.123,333.778,304.093,333.778z M329.192,216.664h-25.146l-13.739,56.218h25.181
	c21.21,0,41.69-17.25,46.203-35.515C367.169,215.143,350.484,216.664,329.192,216.664z"/>
</svg>
