<?xml version="1.0" encoding="utf-8"?>
<!-- Generator: Adobe Illustrator 16.0.0, SVG Export Plug-In . SVG Version: 6.00 Build 0)  -->
<!DOCTYPE svg PUBLIC "-//W3C//DTD SVG 1.1//EN" "http://www.w3.org/Graphics/SVG/1.1/DTD/svg11.dtd">
<svg version="1.1" id="Layer_1" focusable="false" xmlns="http://www.w3.org/2000/svg" xmlns:xlink="http://www.w3.org/1999/xlink"
	 x="0px" y="0px" width="788px" height="636px" viewBox="0 0 788 636" enable-background="new 0 0 788 636" xml:space="preserve">
<g enable-background="new    ">
	<path d="M63.443,292.468v85.518H27.76V258.015h46.494c20.391,0,36.356,4.629,47.9,13.887
		c13.711,11.074,20.566,26.104,20.566,45.088c0,18.164-5.859,32.989-17.578,44.473c-11.72,11.484-26.807,17.227-45.264,17.227
		c-2.168,0-5.713-0.118-10.635-0.352v-35.244h5.713c20.8,0,31.201-8.701,31.201-26.104c0-16.348-10.226-24.521-30.674-24.521H63.443
		z"/>
	<path d="M195.191,258.015v119.971h-35.684V258.015H195.191z"/>
	<path d="M216.725,377.985v-77.871c0-13.652,4.087-24.579,12.261-32.783c8.174-8.203,19.058-12.305,32.651-12.305
		c13.535,0,23.892,3.985,31.069,11.953c7.177,7.969,10.767,19.424,10.767,34.365v76.641h-35.684v-76.641
		c0-7.324-2.607-10.986-7.822-10.986c-5.04,0-7.559,3.662-7.559,10.986v76.641H216.725z"/>
	<path d="M451.305,319.362l37.354,0.967c-2.461,19.336-9.154,34.277-20.082,44.824c-10.93,10.547-25.182,15.82-42.76,15.82
		c-17.871,0-32.826-5.99-44.868-17.974c-12.041-11.982-18.062-26.851-18.062-44.604c0-17.871,6.138-32.9,18.413-45.088
		c12.274-12.187,27.407-18.281,45.396-18.281c17.695,0,32.461,5.977,44.297,17.93c8.203,8.262,14.004,19.775,17.402,34.541
		l-38.232,2.549c-4.277-13.125-12.393-19.688-24.346-19.688c-7.617,0-13.901,2.637-18.852,7.91
		c-4.953,5.273-7.428,11.983-7.428,20.127c0,7.853,2.432,14.341,7.295,19.468c4.863,5.128,11.016,7.69,18.457,7.69
		c7.559,0,13.58-2.255,18.063-6.768C447.834,334.274,450.484,327.8,451.305,319.362z"/>
	<path d="M503.072,258.015h35.684v71.279c0,5.567,0.893,9.272,2.682,11.118c1.787,1.846,5.316,2.769,10.59,2.769h1.846v34.805
		h-9.492c-13.008,0-23.145-3.793-30.41-11.382c-7.266-7.588-10.898-18.119-10.898-31.597V258.015z"/>
	<path d="M650.201,258.015v77.783c0,13.711-4.086,24.668-12.26,32.871c-8.174,8.204-19.059,12.305-32.652,12.305
		c-13.535,0-23.893-3.984-31.068-11.953c-7.178-7.968-10.768-19.424-10.768-34.365v-76.641h35.684v76.553
		c0,7.325,2.607,10.986,7.822,10.986c5.039,0,7.559-3.661,7.559-10.986v-76.553H650.201z"/>
	<path d="M671.91,258.015h43.594c25.84,0,38.76,10.166,38.76,30.498c0,10.078-4.424,18.457-13.271,25.137
		c12.832,5.567,19.248,15.499,19.248,29.795c0,10.957-3.779,19.688-11.338,26.191c-3.691,3.106-7.646,5.273-11.865,6.504
		s-9.902,1.846-17.051,1.846h-6.768v-30.85h6.064c3.574,0,6.094-0.453,7.559-1.362c1.465-0.908,2.197-2.505,2.197-4.79
		c0-3.867-2.988-5.801-8.965-5.801h-6.855V303.19c6.563,0,9.844-2.255,9.844-6.768c0-4.16-2.959-6.24-8.877-6.24h-6.592v87.803
		H671.91V258.015z"/>
</g>
</svg>
