<?xml version="1.0" encoding="utf-8"?>
<!-- Generator: Adobe Illustrator 16.0.0, SVG Export Plug-In . SVG Version: 6.00 Build 0)  -->
<!DOCTYPE svg PUBLIC "-//W3C//DTD SVG 1.1//EN" "http://www.w3.org/Graphics/SVG/1.1/DTD/svg11.dtd">
<svg version="1.1" id="Layer_1" xmlns="http://www.w3.org/2000/svg" xmlns:xlink="http://www.w3.org/1999/xlink" x="0px" y="0px"
	 width="32.334px" height="28.5px" viewBox="0 0 32.334 28.5" enable-background="new 0 0 32.334 28.5" xml:space="preserve">
<path fill="#FFFFFF" d="M16.166,27.621c-0.428,0-0.84-0.155-1.161-0.438c-1.215-1.062-2.386-2.06-3.418-2.938l-0.006-0.005
	c-3.028-2.58-5.644-4.811-7.462-7.005c-2.034-2.454-2.981-4.78-2.981-7.322c0-2.471,0.848-4.749,2.386-6.417
	c1.556-1.688,3.689-2.617,6.012-2.617c1.734,0,3.324,0.549,4.723,1.631c0.706,0.546,1.347,1.214,1.909,1.993
	c0.565-0.779,1.204-1.447,1.911-1.993c1.396-1.082,2.986-1.631,4.723-1.631c2.32,0,4.455,0.93,6.014,2.617
	c1.535,1.668,2.383,3.946,2.383,6.417c0,2.542-0.947,4.868-2.98,7.322c-1.818,2.194-4.434,4.424-7.463,7.005
	c-1.033,0.881-2.207,1.881-3.424,2.943C17.007,27.466,16.593,27.621,16.166,27.621z M9.534,2.641c-1.823,0-3.499,0.729-4.718,2.05
	C3.579,6.032,2.898,7.887,2.898,9.914c0,2.138,0.794,4.05,2.575,6.199c1.723,2.078,4.283,4.261,7.249,6.788l0.005,0.005
	c1.037,0.883,2.212,1.885,3.437,2.954c1.23-1.071,2.408-2.074,3.447-2.96c2.965-2.527,5.525-4.709,7.248-6.787
	c1.781-2.149,2.574-4.063,2.574-6.199c0-2.026-0.68-3.882-1.918-5.224c-1.219-1.321-2.895-2.05-4.717-2.05
	c-1.336,0-2.563,0.425-3.646,1.263c-0.967,0.747-1.639,1.689-2.031,2.351c-0.203,0.34-0.561,0.543-0.956,0.543
	c-0.396,0-0.752-0.203-0.954-0.543c-0.394-0.66-1.066-1.604-2.032-2.351C12.096,3.063,10.87,2.641,9.534,2.641z"/>
</svg>
