<?xml version="1.0" encoding="utf-8"?>
<!-- Generator: Adobe Illustrator 16.0.0, SVG Export Plug-In . SVG Version: 6.00 Build 0)  -->
<!DOCTYPE svg PUBLIC "-//W3C//DTD SVG 1.1//EN" "http://www.w3.org/Graphics/SVG/1.1/DTD/svg11.dtd">
<svg version="1.1" id="Capa_1" xmlns="http://www.w3.org/2000/svg" xmlns:xlink="http://www.w3.org/1999/xlink" x="0px" y="0px"
	 width="29.667px" height="28.5px" viewBox="0 0 29.667 28.5" enable-background="new 0 0 29.667 28.5" xml:space="preserve">
<g>
	<path fill="#FFFFFF" d="M14.833,0.588C7.3,0.588,1.171,6.716,1.171,14.25s6.127,13.662,13.66,13.662
		c7.535,0,13.664-6.129,13.664-13.662S22.367,0.588,14.833,0.588z M14.833,26.042c-6.502,0-11.793-5.29-11.793-11.792
		S8.332,2.458,14.833,2.458s11.791,5.29,11.791,11.792S21.335,26.042,14.833,26.042z"/>
	<path fill="#FFFFFF" d="M21.882,14.066h-6.49V6.979c0-0.518-0.418-0.936-0.936-0.936c-0.516,0-0.934,0.418-0.934,0.936v8.024
		c0,0.517,0.418,0.935,0.934,0.935h7.426c0.516,0,0.936-0.418,0.936-0.935S22.398,14.066,21.882,14.066z"/>
</g>
</svg>
