<?xml version="1.0" encoding="utf-8"?>
<!-- Generator: Adobe Illustrator 16.0.0, SVG Export Plug-In . SVG Version: 6.00 Build 0)  -->
<!DOCTYPE svg PUBLIC "-//W3C//DTD SVG 1.1//EN" "http://www.w3.org/Graphics/SVG/1.1/DTD/svg11.dtd">
<svg version="1.1" id="Layer_1" focusable="false" xmlns="http://www.w3.org/2000/svg" xmlns:xlink="http://www.w3.org/1999/xlink"
	 x="0px" y="0px" width="788px" height="636px" viewBox="0 0 788 636" enable-background="new 0 0 788 636" xml:space="preserve">
<g enable-background="new    ">
	<path d="M322.957,404.037h-61.166v-84.252h-15.47v84.252h-61.166V232.201h61.166v72.114h15.47v-72.114h61.166V404.037z"/>
	<path d="M455.285,364.071c0,11.261-3.771,20.74-11.306,28.431c-7.537,7.69-16.938,11.535-28.203,11.535c-2.063,0-4.127,0-6.188,0
		c-2.38-0.476-4.127-0.792-5.236-0.952c3.332-3.18,4.998-6.437,4.998-9.776c0-3.02-0.632-5.761-1.889-8.226
		c-1.261-2.462-3.385-5.683-6.374-9.658l-51.984-66.562c-5.065-6.508-8.55-12.142-10.446-16.905
		c-2.376-5.868-3.563-12.454-3.563-19.758c0-11.428,3.846-20.992,11.543-28.69c7.694-7.697,17.571-11.547,29.631-11.547
		c1.584,0,3.172,0.119,4.76,0.357c1.585,0.238,3.251,0.435,4.998,0.591c-3.176,3.325-4.76,6.884-4.76,10.681
		c0,2.372,0.722,4.945,2.168,7.713c1.447,2.767,3.459,5.813,6.032,9.133l51.97,66.997c4.775,6.188,8.273,12.016,10.506,17.485
		C454.169,350.395,455.285,356.775,455.285,364.071z M397.923,404.037h-60.448v-78.302L397.923,404.037z M448.621,304.791
		l-56.168-72.828h56.168V304.791z"/>
	<path d="M602.845,404.037h-61.166v-84.252h-15.471v84.252h-61.166V232.201h61.166v72.114h15.471v-72.114h61.166V404.037z"/>
</g>
</svg>
