<?xml version="1.0" encoding="utf-8"?>
<!-- Generator: Adobe Illustrator 16.0.0, SVG Export Plug-In . SVG Version: 6.00 Build 0)  -->
<!DOCTYPE svg PUBLIC "-//W3C//DTD SVG 1.1//EN" "http://www.w3.org/Graphics/SVG/1.1/DTD/svg11.dtd">
<svg version="1.1" id="Layer_1" xmlns="http://www.w3.org/2000/svg" xmlns:xlink="http://www.w3.org/1999/xlink" x="0px" y="0px"
	 width="32.33px" height="28.5px" viewBox="0 0 32.33 28.5" enable-background="new 0 0 32.33 28.5" xml:space="preserve">
<path fill="#FFFFFF" d="M30.248,28.333H2.082V0.167h28.166V28.333z M4.249,26.167h23.833V2.334H4.249V26.167z"/>
<path fill="#FFFFFF" d="M8.251,5.314l9.2,17.56l-0.612,1.26H16.56L8.724,9.249c-1.166-2.239-2.42-3.516-3.761-3.83V5.104
	L8.251,5.314z M13.743,10.229l4.355,8.238l4.074-8.553c0.571-1.189,0.857-2.082,0.857-2.676c0-0.921-0.455-1.527-1.364-1.819V5.104
	c-0.022,0,0.304,0.029,0.979,0.087c0.896,0.082,1.603,0.123,2.115,0.123c0.408,0,1.276-0.07,2.605-0.21v0.315
	c-0.77,0.326-1.393,0.764-1.871,1.312c-0.489,0.56-1.125,1.667-1.906,3.323l-5.492,11.439L9.668,5.314
	c1.061,0,2.326-0.07,3.795-0.21v0.315c-0.676,0.187-1.014,0.606-1.014,1.259C12.449,7.39,12.88,8.573,13.743,10.229z"/>
</svg>
