<?xml version="1.0" encoding="utf-8"?>
<!-- Generator: Adobe Illustrator 16.0.0, SVG Export Plug-In . SVG Version: 6.00 Build 0)  -->
<!DOCTYPE svg PUBLIC "-//W3C//DTD SVG 1.1//EN" "http://www.w3.org/Graphics/SVG/1.1/DTD/svg11.dtd">
<svg version="1.1" id="Layer_1" focusable="false" xmlns="http://www.w3.org/2000/svg" xmlns:xlink="http://www.w3.org/1999/xlink"
	 x="0px" y="0px" width="788px" height="636px" viewBox="0 0 788 636" enable-background="new 0 0 788 636" xml:space="preserve">
<path d="M696.939,300.689l-57.805-100.156c1.234-2.472,2.162-5.254,2.162-8.346c0-9.274-7.727-17.002-17-17.312l-63.99-110.666
	c0.619-1.854,1.236-3.709,1.236-5.563c0-9.892-8.037-17.621-17.619-17.621c-5.564,0-10.201,2.473-13.602,6.492h-123.03
	c-3.091-4.017-7.728-6.491-13.292-6.491c-5.564,0-10.2,2.474-13.292,6.492H258.296c-3.401-4.018-8.037-6.492-13.602-6.492
	c-9.582,0-17.62,7.728-17.62,17.62c0,1.855,0.619,4.019,1.237,5.564l-64.607,112.212c-6.181,2.781-10.51,8.655-10.51,15.766
	c0,0.617,0.31,1.236,0.31,1.854L91.987,300.381c-8.346,1.546-14.529,8.655-14.529,17.312c0,8.346,5.873,15.456,13.911,17.311
	l63.679,110.048c-0.618,1.854-0.928,3.4-0.928,5.563c0,8.347,5.873,15.457,13.911,17.002l59.662,103.556
	c-0.619,1.854-1.236,4.019-1.236,6.183c0,9.892,8.037,17.62,17.62,17.62c5.564,0,10.201-2.474,13.293-6.183h123.339
	c3.091,3.708,8.037,6.181,13.291,6.181c5.254,0,10.202-2.473,13.292-6.182h123.649c3.09,3.399,7.729,5.563,12.674,5.563
	c9.891,0,17.621-8.036,17.621-17.619c0-1.855-0.309-3.4-0.928-4.946l59.66-104.174c8.037-1.545,13.912-8.655,13.912-17.002
	c0-1.854-0.311-3.709-0.928-5.563l63.369-110.049c8.037-1.545,14.221-8.654,14.221-17.311
	C710.541,309.345,704.668,302.234,696.939,300.689z M238.82,542.731l-50.386-87.481h50.386V542.731z M238.82,445.978h-50.386
	c-0.309-1.237-0.928-2.473-1.545-3.71l51.931-54.714V445.978z M238.82,373.951l-58.115,61.516c-1.545-0.618-3.092-1.546-4.637-1.854
	l-64.296-111.284c0.617-1.546,0.617-3.092,0.617-4.638c0-1.545,0-2.781-0.309-4.019l59.971-103.865
	c3.092-0.309,6.182-1.237,8.964-3.091l57.806,59.971L238.82,373.951L238.82,373.951z M238.82,255.865l-52.859-54.713
	c1.545-2.473,2.473-5.563,2.473-8.963c0-0.31-0.309-0.928-0.309-1.237l50.695-18.239V255.865z M238.82,162.82l-50.386,18.238
	l50.386-87.172V162.82z M615.641,207.953l0.928,1.545l-40.805,192.893l-73.572-77.59l113.141-117.157L615.641,207.953z
	 M398.327,432.375l13.292,13.603h-26.275L398.327,432.375z M398.018,419.392l-96.136-98.609l91.809-97.373l95.827,101.082
	L398.018,419.392z M404.201,426.192l91.5-94.9L573.6,413.52l-6.799,32.458H423.676L404.201,426.192z M535.27,73.794
	c1.236,0.618,2.471,1.237,4.018,1.546l66.77,116.229v0.619c0,3.4,0.928,6.49,2.475,8.963L496.01,318l-95.826-101.083L535.27,73.794z
	 M524.758,71.321L393.69,210.117l-65.844-69.553l191.964-69.243H524.758z M382.252,71.321c3.091,3.091,7.109,4.945,11.747,4.945
	c4.638,0,8.656-1.854,11.748-4.945h86.554l-171.253,61.824l-58.733-61.824H382.252z M248.095,77.813l1.236-2.473
	c1.042-0.266,2.075-0.576,3.091-0.928l59.043,62.135l-63.37,22.875V77.813z M248.095,169.313l70.17-25.348l68.934,72.953
	l-91.809,97.064l-47.295-48.531V169.313z M248.095,276.269l42.04,43.586l-42.04,44.205L248.095,276.269L248.095,276.269z
	 M248.095,377.661l48.531-51.313l95.519,99.228l-19.785,20.402H248.095V377.661L248.095,377.661z M256.131,564.68
	c-1.854-1.854-4.018-3.091-6.8-4.019l-1.236-1.855V455.25h115.302l-105.72,109.43H256.131z M406.057,564.68
	c-3.092-2.782-7.419-4.945-12.057-4.945c-4.638,0-8.963,2.163-12.056,4.945H270.659l105.719-109.43h44.206l105.719,109.43H406.057
	L406.057,564.68z M544.543,551.078l-4.947,8.654c-1.545,0.31-2.781,0.927-4.018,1.546L432.641,455.25h131.996L544.543,551.078
	L544.543,551.078z M559.379,525.421l14.84-70.171h25.348L559.379,525.421z M599.566,445.978h-23.494l5.254-24.421l19.785,21.021
	C600.494,443.504,599.875,444.739,599.566,445.978L599.566,445.978z M675.92,322.019l-63.99,111.594
	c-1.545,0.617-3.09,1.236-4.637,2.162l-23.803-25.348l39.879-189.182l52.859,91.5c-0.309,1.546-0.928,3.091-0.928,4.945
	C675.301,319.236,675.609,320.474,675.92,322.019z"/>
</svg>
