<?xml version="1.0" encoding="utf-8"?>
<!-- Generator: Adobe Illustrator 16.0.0, SVG Export Plug-In . SVG Version: 6.00 Build 0)  -->
<!DOCTYPE svg PUBLIC "-//W3C//DTD SVG 1.1//EN" "http://www.w3.org/Graphics/SVG/1.1/DTD/svg11.dtd">
<svg version="1.1" id="Layer_1" focusable="false" xmlns="http://www.w3.org/2000/svg" xmlns:xlink="http://www.w3.org/1999/xlink"
	 x="0px" y="0px" width="788px" height="636px" viewBox="0 0 788 636" enable-background="new 0 0 788 636" xml:space="preserve">
<g enable-background="new    ">
	<path d="M137.47,270.759l-1.904,3.003l0.293,2.344l0.732-0.293c0,0.685-0.343,1.831-1.025,3.442l-0.879,1.978v7.69l-1.538,3.442
		l0.293,2.197l-1.318,6.812l0.586,1.758l-1.172,5.42l0.293,2.417l-1.099,3.882l1.099,3.735l-2.417,3.735l0.586,2.124l-1.318,2.563
		l0.732,1.465l0.586,7.031l1.025,2.271c-0.732,0.487-1.271,1.099-1.611,1.831l-1.392-0.293l-0.732-7.397l-1.025-0.293
		c-0.099-0.879-0.159-1.77-0.184-2.673c-0.025-0.903-0.062-1.795-0.109-2.674v-2.93c0-1.073-0.146-1.879-0.439-2.417l-0.952-1.904
		l-2.856-0.439l-1.611-1.978l-0.732,0.952l-1.392-1.685l-2.417,0.732l-2.93-2.344l-1.538,0.293l-3.003-0.586l-1.758-1.831
		l-1.099,0.293l-9.155-5.859l-1.025-1.318l-3.149-1.392l-1.978-2.49l-1.758-0.952l-2.417-2.417l-6.738-2.93l-4.834-6.152
		l-2.051-0.146l-1.099-1.685c-1.368-0.586-2.955-1.929-4.761-4.028h0.732c-0.929-0.83-1.734-1.978-2.417-3.442l-1.025-0.366h-0.293
		c-1.075,0-1.771,0.342-2.088,1.025c-0.318,0.685-0.672,2.149-1.062,4.395l-1.392,7.69l1.392,4.614l-2.124,7.69
		c0.586,3.076,0.879,4.761,0.879,5.054v0.586c0,1.221-0.318,2.197-0.952,2.93c-0.636,0.732-0.952,1.271-0.952,1.611
		c0,0.245,0.634,0.586,1.904,1.025l-0.879,3.149v3.735l-0.732,4.102l0.732,1.611l-0.732,1.099c-0.196,2.979-0.855,5.321-1.978,7.031
		h-1.025c-1.222,0-1.831-0.952-1.831-2.856v-0.586l1.831-5.859l-0.732-2.417l1.025-3.149l-1.025-1.172l1.172-2.417l-1.685-2.271
		c0.243-1.172,0.366-2.124,0.366-2.856c0-0.78-0.123-1.879-0.366-3.296l0.659,0.293l0.586-1.465l-1.245-2.271l1.245-3.442
		l-0.732-4.468l1.025-4.834l-0.879-3.296l1.025-7.178l-0.146-5.566l0.732-5.127l-0.732-1.611l0.146-7.251l1.685-0.439
		c-1.318-1.27-1.978-2.417-1.978-3.442c0-0.586,0.293-1.123,0.879-1.611l2.71,0.586l0.732-1.025
		c0.927,0.732,1.392,1.514,1.392,2.344c0,0.586-0.27,1.294-0.806,2.124h2.124l0.293,3.442l1.831,1.538l0.293,2.197l2.417,1.538
		l0.806,3.076c0.293,1.172,0.806,2.051,1.538,2.637l4.98,3.589v0.293c0,0.781,0.513,1.685,1.538,2.71l3.442,2.344l3.735,4.395
		l11.719,9.741h1.318c1.073,0.879,1.758,1.685,2.051,2.417s0.561,1.124,0.806,1.172l4.761,1.538l3.809,3.149l2.197,0.732
		l4.248,2.417l4.028,1.172c2.49,2.49,4.589,3.735,6.299,3.735l2.271-0.586h0.439l0.293-4.175l2.124-4.541l-1.099-1.025l0.439-7.031
		l1.685-2.563l-0.22-1.685c-0.05-0.487-0.538-1.489-1.465-3.003l1.685-5.859l-0.732-5.493l1.465-10.693l-1.758-1.904l2.051-6.152
		l-0.732-0.806l1.025-1.318l-0.293-1.025l2.271-1.099l0.439,1.099l2.124-0.439c-0.293,1.025-0.439,1.953-0.439,2.783
		c0,0.978,0.243,1.844,0.732,2.6c0.487,0.758,0.732,1.258,0.732,1.502l-1.025,2.856L137.47,270.759z"/>
	<path d="M234.955,256.916c-0.146,0.732-0.392,1.294-0.732,1.685h-1.611l-1.099,0.732l-2.051-0.732l-2.417,0.146
		c-1.172,0-1.868-0.171-2.088-0.513c-0.22-0.341-0.574-0.513-1.062-0.513c-0.392,0-1.051,0.293-1.978,0.879
		c-0.636-0.391-1.271-0.586-1.904-0.586c-0.636,0-1.624,0.269-2.967,0.806c-1.344,0.538-2.307,0.806-2.893,0.806
		c-0.489,0-1.172-0.048-2.051-0.146c-0.879-0.098-1.563-0.146-2.051-0.146c-0.636,0-1.025,0.293-1.172,0.879
		c-0.782-0.586-1.588-0.879-2.417-0.879c-1.417,0-2.856,0.611-4.321,1.831l-1.538-0.806l-1.318,0.806l-3.442-1.099l-2.417,1.392
		h-2.71c-1.611,0.392-2.882,0.696-3.809,0.915c-0.929,0.221-2.149,0.722-3.662,1.502l-1.392-0.952l-2.637,2.124l-2.71-0.146
		l-1.978,3.589l0.732,2.856c-0.978,0.245-1.465,1.538-1.465,3.882l0.146,1.245l-0.146,3.149l0.439,0.586l-1.025,0.879l0.586,0.879
		c-0.732,1.563-1.099,2.93-1.099,4.102c0,2.197,1.318,3.296,3.955,3.296c0.39,0,1.013-0.121,1.867-0.366
		c0.854-0.244,1.722-0.244,2.601,0c0.879,0.245,1.685,0.366,2.417,0.366l2.271-0.952l2.344,0.806l1.538-0.439l1.465,0.146
		l2.271-0.513l1.318,0.366h0.366c0.586,0,1.465-0.317,2.637-0.952c0.879,0.439,1.915,0.611,3.112,0.513
		c1.196-0.098,2.063-0.22,2.601-0.366l1.978-0.439l3.296,0.586c0.293,0,0.586-0.293,0.879-0.879c2.49,0.488,4.003,0.732,4.541,0.732
		l1.611-0.146l5.127,0.293l2.71-0.586c0.146-0.586,0.732-0.879,1.758-0.879l3.442,0.439l1.392-0.293l1.904,0.732l1.978-0.439
		l-0.439,1.831c-1.758,0.685-3.053,1.025-3.882,1.025c-0.245,0-0.77-0.109-1.575-0.33c-0.806-0.219-1.551-0.354-2.233-0.402
		l-3.882,1.904l-3.296-0.293l-1.904,0.732l-1.392-0.293l-2.417,1.392l-1.611-0.439l-6.006,0.146c-0.685,0-1.344,0.293-1.978,0.879
		l-2.051-0.586l-1.099,1.025l-1.904-0.586l-1.099,1.025l-2.856-1.318l-2.051,1.318l-2.417-0.586
		c-0.196-0.098-0.586-0.146-1.172-0.146c-0.732,0-1.758,0.195-3.076,0.586l-1.758,0.586l-5.42,0.513l-1.172-0.659
		c-0.538,0.392-2.051,0.806-4.541,1.245l-1.172,2.856l1.392,7.764l-0.806,1.025l0.952,2.417l-0.146,2.71l0.513,0.732
		c0.146,0.195,0.414,1.66,0.806,4.395l1.318,1.465l-0.732,2.563l1.538-0.439l2.71,4.175c3.759,2.93,7.055,4.395,9.888,4.395
		l2.71,0.439c0.487,0,1.538-0.194,3.149-0.586l0.586-0.806h1.318c1.025,0,1.721-0.012,2.087-0.037
		c0.366-0.023,1.429-0.597,3.187-1.721c1.366,0,2.172-0.194,2.417-0.586l1.611-0.439c0.586-0.146,1.146-0.414,1.685-0.806
		l2.051-1.611c0.586-0.83,1.342-1.636,2.271-2.417l1.978-0.146l3.735-3.296c3.026-0.879,4.834-2.49,5.42-4.834l1.025,0.586
		l0.439-2.344l1.978-0.146l0.293-2.271h0.439c0.927,0,1.586,0.586,1.978,1.758l-5.127,6.665l-1.831,0.439
		c-1.758,2.686-2.955,4.224-3.589,4.614l-3.735,2.563l-2.417,2.271l-1.025-0.146l-1.831,1.904l-6.885,2.856l-1.611,2.124
		l-2.417-0.732l-0.732,1.172l-0.659-0.146l-1.172,1.025l-4.028-0.879l-4.98,2.271l-3.589-1.392l-6.152-3.149
		c-1.758-0.927-3.333-2.344-4.725-4.248s-2.809-4.968-4.248-9.192c-1.44-4.223-2.16-6.529-2.16-6.921l0.513-2.124l-1.099-2.856
		l1.099-1.318l-1.392-8.13c-1.318-1.659-2.076-2.6-2.271-2.82c-0.196-0.219-0.293-0.72-0.293-1.501c0-1.806,0.427-2.917,1.281-3.333
		c0.854-0.414,1.282-0.646,1.282-0.695v-0.952c0-0.684,0.463-1.123,1.392-1.318l0.439-2.124l-0.439-0.879v-4.248l-0.513-1.758
		l1.685-4.541c0.487-1.855,0.879-3.197,1.172-4.028l-1.904-2.417l-3.296,0.293h-0.293c-0.538,0-1.025-0.207-1.465-0.623
		c-0.439-0.414-0.659-0.89-0.659-1.428c0-0.927,0.659-2.124,1.978-3.589c0.487-0.194,0.829-0.464,1.025-0.806
		c1.758-0.684,2.758-1.025,3.003-1.025c0.341,0,0.683,0.245,1.025,0.732c0.293-0.684,0.707-1.025,1.245-1.025
		c1.465,0,2.197-0.439,2.197-1.318c0-0.293-0.146-0.659-0.439-1.099l4.98,0.293l0.879,1.685c1.562-1.123,3.173-1.685,4.834-1.685
		l1.025,0.146l3.149-0.732c0.78,0,1.781-0.341,3.003-1.025v1.025c0.879-0.78,2.124-1.172,3.735-1.172l2.563,0.146h0.439
		l14.282-1.392l3.296,1.392l1.025-1.831c0.243,0.732,0.634,1.099,1.172,1.099c0.146,0,0.609-0.121,1.392-0.366l1.611,0.952
		l1.099-0.952l2.71,1.099l1.758-0.439l0.879,0.732l4.834-0.439l0.732,0.439C233.611,256.136,234.856,256.575,234.955,256.916z"/>
	<path d="M326.215,324.738c3.369,1.953,5.054,3.516,5.054,4.688c0,1.271-0.77,2.308-2.308,3.112
		c-1.538,0.807-2.819,1.209-3.845,1.209l-3.003-1.025l-2.344,0.439h-0.146c-0.196,0-0.636-0.207-1.318-0.623
		c-0.685-0.414-1.515-0.622-2.49-0.622h-0.293c-2.589,0-4.42-1.146-5.493-3.442c-0.099,0.099-0.27,0.146-0.513,0.146
		c-0.439,0-1.417-0.293-2.93-0.879l-1.685-2.271c-2.197-1.366-3.761-2.611-4.688-3.735l-9.229-11.279l-3.149-4.907l-0.659-2.71
		l-1.611-1.465h-1.245c-1.124,1.124-2.271,2.759-3.442,4.907l-1.318,0.293l-5.713,4.98l-3.149,2.417l-1.831,3.589l-10.474,8.496
		l-1.978,3.149l-3.296,1.318c-0.392,0.146-1.075,0.831-2.051,2.051l-1.831,0.146l-3.442,3.882l-1.831,0.732
		c-1.611,1.172-2.76,1.831-3.442,1.978c-1.318,2.002-2.271,3.003-2.856,3.003s-0.879-0.366-0.879-1.099l2.271-1.904
		c0.293-0.195,0.952-1.147,1.978-2.856c1.122-0.146,1.758-0.952,1.904-2.417c2.93-0.977,4.834-2.734,5.713-5.273l1.172-0.586
		l0.952,0.293l2.344-2.71c0.097-0.098,0.366-0.341,0.806-0.732c0.439-0.391,0.866-0.817,1.281-1.282
		c0.414-0.463,0.757-0.89,1.025-1.281c0.268-0.391,1.33-1.123,3.187-2.197l1.978-2.124c0.976-0.487,1.732-1.439,2.271-2.856
		l1.758-0.439l4.248-4.834v-1.025l1.758-1.172l1.245-2.563l1.465-0.293l1.978-2.856l2.417-0.732l0.146-1.978l2.197-1.685v-0.732
		c0-2.93-1.588-6.079-4.761-9.448c-0.978-0.83-1.734-1.782-2.271-2.856l-1.172-2.417l-2.417-2.051l-5.42-5.859
		c-0.782-1.318-1.93-2.831-3.442-4.541c-3.419-1.611-5.896-3.187-7.435-4.724c-1.538-1.539-2.307-3.211-2.307-5.018v-1.465
		l3.003-1.245l3.003,0.366l2.124,2.344h2.49v1.099l2.271,1.172l0.879,2.563l2.417,0.879l1.245,2.417l2.344,1.025v2.71l5.127,5.273
		l1.025,3.003h1.099l1.758,2.563l1.831,4.321l1.392,1.099c0.439,0.392,1.073,1.271,1.904,2.637c1.366-1.758,2.758-3.149,4.175-4.175
		c1.415-1.025,2.124-1.636,2.124-1.831c0-0.098-0.05-0.194-0.146-0.293l1.318-0.879v-1.392c2.294-2.099,3.673-3.356,4.138-3.772
		c0.464-0.414,0.696-0.793,0.696-1.135l1.611-2.271c1.025-1.855,1.831-3.101,2.417-3.735l3.149-3.589l0.879-1.978
		c1.172-1.172,1.806-2.16,1.904-2.967c0.097-0.805,0.157-1.329,0.183-1.574c0.024-0.244,0.586-1.073,1.685-2.49
		c1.099-1.416,1.941-2.417,2.527-3.003l2.271-0.439c0.487,0,1.013,0.452,1.574,1.354c0.561,0.904,0.843,1.99,0.843,3.26
		c0,0.293-0.489,1.258-1.465,2.893c-0.978,1.637-1.624,2.857-1.941,3.662c-0.318,0.807-1.087,1.99-2.307,3.553
		c-0.929,0.538-1.783,1.318-2.563,2.344c-0.978,0.342-1.465,0.904-1.465,1.685c-0.929,1.318-1.441,2.563-1.538,3.735
		c-0.782,0.342-1.318,0.952-1.611,1.831c-1.465,0.685-2.527,1.685-3.187,3.003s-1.111,2.149-1.354,2.49
		c-1.075,0.488-1.758,1.147-2.051,1.978l-1.392,2.124l-2.417,2.344l-1.318,2.124c-1.417,0.928-2.197,1.514-2.344,1.758
		c-0.146,0.245-0.22,0.562-0.22,0.952c0,0.439,0.146,0.879,0.439,1.318l1.245,1.904c0.39,0.538,1.025,1.953,1.904,4.248l0.659,0.513
		c0.293,0.195,0.634,0.562,1.025,1.099c0.39,0.538,0.927,1.318,1.611,2.344l3.442,4.321l0.513,2.417l4.321,3.589l3.149,3.442
		l3.003,1.172l3.149,3.296h1.318l4.541,1.831c0.487,0.099,1.122,0.146,1.904,0.146c1.415,0,2.38-0.33,2.893-0.988
		c0.513-0.66,0.916-0.989,1.209-0.989h0.146V324.738z"/>
	<path d="M432.195,261.457l-0.732,1.611l-1.904,0.293h-4.541l-2.123,0.513l-1.758-0.513l-9.303,0.806l-3.148-0.806
		c-2.59,1.025-4.444,1.538-5.566,1.538h-4.469l-2.709-1.025c0,0.488-0.367,0.831-1.1,1.025c-1.367,0-2.698,0.195-3.991,0.586
		c-1.294,0.392-2.503,0.586-3.626,0.586l-3.002-1.172l-2.563,1.172l-0.293,0.952h-1.318l-0.806,1.465l-0.586,9.741l0.586,1.392
		l-0.293,1.611l0.146,4.321l-0.439,4.395v1.318c0,0.635-0.136,1.111-0.403,1.428c-0.269,0.318-0.476,1.111-0.622,2.381l1.172,1.904
		l-0.293,2.417l-1.025,0.732c0,0.586,0.293,1.344,0.879,2.271l-0.879,1.465v1.685l-1.172,1.758l0.732,4.248l-0.293,6.152
		l-1.099,3.882c0.194,0.392,0.293,0.685,0.293,0.879c0,0.293-0.086,0.623-0.257,0.988c-0.172,0.367-0.195,0.732-0.073,1.1
		c0.121,0.365,0.184,0.671,0.184,0.915c0,0.293-0.245,0.94-0.732,1.94c-0.489,1.002-0.659,1.624-0.513,1.868
		c0.048,0.099,0.22,0.879,0.513,2.344c-0.489,1.318-0.732,2.319-0.732,3.003s0.097,1.782,0.293,3.296
		c-0.586,0-1.111-0.073-1.575-0.22c-0.465-0.146-0.745-0.22-0.842-0.22c-0.782,0-1.172-1.44-1.172-4.321l0.293-2.271
		c0-0.83-0.099-2.025-0.293-3.589c-0.196-1.563-0.293-2.71-0.293-3.442l0.879-10.547c-0.782-1.318-1.172-2.051-1.172-2.197
		c0-0.537,0.243-1,0.732-1.392c-0.392-0.487-0.586-0.927-0.586-1.318c0-0.293,0.293-0.586,0.879-0.879
		c-0.392-0.977-0.586-1.636-0.586-1.978c0-0.537,0.17-1.257,0.513-2.161c0.341-0.902,0.513-1.428,0.513-1.574l-0.146-2.417
		c0-0.293,0.463-1.392,1.392-3.296c-0.831,0-1.245-0.659-1.245-1.978c0-2.295,0.293-3.589,0.879-3.882v-6.152l-0.879-3.003
		l0.879-6.299l-0.879-4.468l0.879-3.516c-0.392-1.366-1.075-2.051-2.051-2.051c-0.538,0-1.002,0.245-1.392,0.732l-2.124,0.22
		c-0.782,0.049-1.563,0.318-2.344,0.806l-1.831-0.146l-1.758,0.146v0.513h-1.245c-1.661,0-3.003-0.317-4.028-0.952l-0.293,0.952
		l-3.149-0.952l-8.716-0.293l-3.442,1.025c-2.589-2.245-3.882-3.735-3.882-4.468c0-0.194,0.194-1,0.586-2.417h2.417l10.62,2.124
		l2.563-0.879l7.031,0.293l6.592,0.586l4.395-1.685h1.172l1.245-3.442l2.051,0.659l0.439,1.465l0.952-0.439
		c0.78,1.025,1.928,1.88,3.442,2.563l2.417-0.806c1.611,0,3.003,0.659,4.175,1.978l0.878-1.172l5.566-1.099l3.443,0.293
		c0.976,0.439,1.879,0.659,2.709,0.659h0.732c0.928-0.341,1.686-0.513,2.271-0.513l2.123,0.366c0.439,0,0.732-0.171,0.879-0.513
		l3.004-0.439l3.441,0.806c0.488,0.488,1.184,0.574,2.088,0.257c0.902-0.317,1.502-0.477,1.795-0.477l2.709,0.513l7.471-0.146
		l3.297,0.586H432.195z"/>
	<path d="M521.186,293.684l-1.393,3.296l-0.439,4.541l-1.318,1.318l-1.537,4.834c-0.146,0.635-0.293,1.099-0.439,1.392
		s-0.465,0.538-0.953,0.732l-1.611,0.659l-8.861,7.104l-2.051,1.025c-0.635,0.293-1.637,1.099-3.004,2.417v-0.879l-6.152,4.761
		l-2.709,1.172l-6.445,3.516c-0.928-0.439-1.832-0.659-2.711-0.659c-0.684,0-1.207,0.245-1.574,0.732
		c-0.365,0.488-0.744,0.806-1.135,0.952l-1.318-0.293l-2.418,2.271l-1.244-0.659l-0.586,0.806h-2.564l-1.318,1.318l-4.467-0.293
		l-7.252,1.318c-0.293-0.099-0.732-0.146-1.318-0.146l-2.27,0.293l-2.564-0.439l-0.586-0.586l-6.299-1.025l-3.002-1.538h-1.318
		v-2.856l-2.125,0.806l-1.025-1.465c-0.439-0.537-0.928-0.952-1.465-1.245l-2.344-1.099c-0.781-2.197-1.221-4.735-1.318-7.617
		l-0.732-1.025l-0.293-6.006l2.051-6.445l-0.293-3.149l1.393-1.245l-1.1-2.563l2.564-2.051v-2.124l0.879-1.978v-1.611l1.098-1.831
		l-0.439-0.586l0.732-0.439l3.15-7.178l5.859-9.302c0.879-0.293,1.512-0.817,1.904-1.574c0.391-0.757,1.439-1.746,3.148-2.967
		l-0.293-1.318h1.832l-0.439-0.879c1.123-1.172,2.66-2.075,4.613-2.71l1.1-1.245h-0.146c0-0.048,0.951-0.194,2.855-0.439
		l6.885-0.879l4.322,0.586l3.295-0.146h3.883c1.025,0.195,1.732,0.293,2.123,0.293c1.367,0,2.418-0.439,3.15-1.318
		c0.486,0.488,1.049,0.732,1.684,0.732c0.293,0,0.537-0.048,0.732-0.146c0.049,0.978,0.537,1.465,1.465,1.465
		c0.391,0.439,1.49,0.758,3.297,0.952l1.098,1.025l2.197,0.293h2.857l4.102,2.124h-0.953l2.783,1.978
		c0.342,0.245,0.83,0.928,1.465,2.051l2.197,1.025l1.1,1.831l2.563,1.025l4.98,8.276c0.342,0.538,0.928,1.93,1.758,4.175
		l1.979,5.347c0.486,1.271,0.732,2.1,0.732,2.49V293.684z M516.352,289.802l-1.318-3.442l0.146-1.099
		c0-0.487-0.123-1.025-0.367-1.611s-1.27-1.439-3.076-2.563l-1.098-2.856l-0.879-0.439l-0.439-1.685l-4.248-4.468l-3.736-3.149
		l-1.172,0.439l-5.42-3.442c-0.488-0.293-1.525-0.561-3.111-0.806c-1.588-0.244-2.797-0.634-3.627-1.172
		c0,0.099-0.146,0.146-0.439,0.146c-0.195,0-0.951-0.098-2.27-0.293l-0.732,0.513l-2.271-0.806l-1.465,0.806
		c-1.318-0.439-2.223-0.659-2.709-0.659c-0.293,0-0.721,0.11-1.281,0.329c-0.563,0.221-0.99,0.33-1.283,0.33
		c-0.488,0-0.83-0.121-1.025-0.366c-1.025,0.538-1.844,1.16-2.453,1.868c-0.611,0.708-1.6,1.354-2.967,1.94l-2.123-0.513
		l-2.051,1.392l-2.418-0.293l-0.879,0.366c-0.293,0.146-0.561,0.33-0.805,0.549c-0.246,0.221-0.549,0.477-0.916,0.77
		c-0.365,0.293-0.805,0.623-1.318,0.988c-0.512,0.367-1.074,0.77-1.684,1.209c-0.611,0.439-1.283,0.879-2.016,1.318
		c-0.342,0.245-1,1.245-1.977,3.003l0.146,2.124l-2.711,1.172c-0.293,0.146-0.904,0.758-1.83,1.831
		c-0.732,1.66-1.637,3.003-2.711,4.028v1.831c-1.172,0.488-1.855,1.099-2.051,1.831l-1.391,4.321l-2.49,1.611
		c-0.342,6.104-0.867,9.644-1.574,10.62c-0.709,0.978-1.197,1.867-1.465,2.674c-0.27,0.805-0.467,1.684-0.588,2.637
		c-0.121,0.951-0.475,2.307-1.061,4.064l0.879,1.758l0.439,2.71l1.391,1.831c0.195,0.293,0.342,0.659,0.439,1.099l0.293,1.758
		c1.904,2.149,4.273,3.662,7.105,4.541c2.83,0.879,4.467,1.271,4.906,1.172l4.834-1.245l1.025,1.099h2.418v1.025h2.344l0.658-1.831
		l2.344-0.293l6.006,0.732c0.537-0.977,1.146-1.465,1.832-1.465l0.586,0.146c2.197-1.416,3.809-2.124,4.834-2.124h0.586l3.002-1.904
		c0.391-0.194,1.439-0.341,3.15-0.439l1.904-1.685c3.613-0.098,5.688-0.341,6.225-0.732c0.537-0.391,1.014-0.806,1.43-1.245
		c0.414-0.439,1.379-0.83,2.893-1.172l1.025-2.856l0.439,0.146l0.293-1.025c1.172-0.341,2.123-1,2.855-1.978l1.393,0.439
		l0.732-1.465l2.416-1.831l4.029-4.468l2.416-0.879l1.172-2.563l1.979-1.392l-0.439-2.71l1.025-2.344l-0.586-4.395L516.352,289.802z
		"/>
	<path d="M642.328,324.006c0.391,1.074,0.586,1.758,0.586,2.051c0,0.439-0.453,1.014-1.355,1.722
		c-0.904,0.708-1.941,1.55-3.113,2.526l-1.684-0.586l-1.979,3.003c-1.611,0.099-3.148,0.538-4.613,1.318l-4.322-1.025l-2.416,1.025
		l-0.732,1.318c-1.418-1.074-2.32-1.611-2.711-1.611c-0.195,0-0.293,0.146-0.293,0.439l-0.805-0.146l-1.318,1.318l-1.318-1.611
		l-1.1,0.439c-0.83-0.684-1.637-1.025-2.416-1.025h-4.762l-1.391-1.538l-1.611,0.293l-2.418-1.318l-1.465,0.732l-1.098-1.758h-2.197
		l-1.393-1.685h-1.758c-0.146,0-0.451-0.366-0.916-1.099c-0.463-0.732-1.16-1.366-2.086-1.904l-4.541-2.417
		c-2.637-1.27-4.688-3.467-6.152-6.592h-1.758l-2.418-3.003l-4.395-3.442l-4.906-5.713l-1.393-0.439l-2.27-2.417
		c-0.246-0.293-1.271-0.732-3.076-1.318c-0.686,0.392-1.295,0.586-1.832,0.586c-0.439,0-0.928-0.194-1.465-0.586v0.146
		c0,0.099-0.098,0.146-0.293,0.146h-1.537l-1.465-2.124c0.537-0.586,0.879-1.586,1.025-3.003l1.83-0.586v-0.879l1.904-0.439
		c0.635-0.487,1.246-0.732,1.832-0.732c0.391,0,0.805,0.122,1.244,0.366c0.439,0.245,0.707,0.366,0.807,0.366
		c0.146,0,0.316-0.146,0.512-0.439c0.439,1.807,2.539,2.71,6.299,2.71c3.271,0,5.811-0.317,7.617-0.952v-0.439l11.279-0.439
		c2.588-1.318,5.322-1.978,8.203-1.978l0.953,0.293l2.49-0.879l0.658-0.879l1.758,0.146l2.271-0.879h1.611
		c0.83,0,1.342-0.085,1.537-0.256s0.293-0.55,0.293-1.136v-0.586c1.221-0.146,1.832-0.341,1.832-0.586
		c3.76-0.977,5.639-2.637,5.639-4.98c0-1.123-0.537-2.222-1.611-3.296l-4.98-4.761h-1.172c-2.295-1.416-3.76-2.124-4.395-2.124
		h-1.465l-3.002-1.318h-1.832l-1.904-1.538h-3.441l-1.393-0.586l-8.203-0.586l-1.391-0.806l-0.879,0.513l-1.686-0.513l-1.611,0.513
		l-4.395-0.513l-4.467,0.806l-2.418-0.806l-2.709,0.293l-2.344-0.293l-1.832,0.806l-1.318-0.513l-2.709,1.685l-2.125-0.293
		c-0.684,1.465-1.439,2.71-2.27,3.735l0.951,2.124l-0.439,8.716l1.025,7.471c-1.074,3.468-1.637,5.615-1.684,6.445l-1.025,19.189
		l1.172,10.986l-0.879,5.859v1.465c0,0.78-0.953,1.172-2.857,1.172h-0.586l0.732-5.786l-0.732-2.271l-1.318-6.152l0.879-0.586
		c-1.221-1.513-1.83-2.515-1.83-3.003c0-0.927,0.561-1.929,1.684-3.003l-1.244-2.417h-0.146c-0.195,0-0.293-0.048-0.293-0.146
		c0-0.537,0.609-1.929,1.83-4.175c-0.684-0.732-1.025-1.685-1.025-2.856l0.439-2.417v-1.172c0.684-1.27,1.025-2.318,1.025-3.149
		c0-0.927-0.342-2.099-1.025-3.516l1.025-2.49l-0.439-2.271l0.879-0.732c-0.293-0.439-0.439-0.952-0.439-1.538
		c0-0.732,0.342-1.929,1.025-3.589l-1.465,0.293l-0.879-4.028l0.732-2.856l-0.732-6.152l0.732-0.732
		c-1.563-1.611-2.758-2.417-3.588-2.417h-0.439l-1.1,1.025l-3.441-0.293l-2.271,2.856c-1.025-0.83-1.977-1.318-2.855-1.465
		c-0.781-1.025-1.172-1.831-1.172-2.417c0-0.487,0.109-0.964,0.328-1.429c0.221-0.463,0.598-0.89,1.137-1.281l1.977-1.318
		l4.541-0.513l6.152-0.293l1.318-1.025v-0.439c0-1.513,1.146-2.271,3.443-2.271h1.83c0.537,2.1,1.439,3.149,2.711,3.149
		c0.293,0,1.342-0.439,3.148-1.318l3.736,0.879l5.859-0.879l7.764,0.879l10.986,0.293l5.492,1.025h4.248l1.611,1.392
		c0.146-0.586,0.465-0.879,0.953-0.879c0.391,0,0.879,0.293,1.465,0.879c0,0.685,0.193,1.271,0.586,1.758l1.537,0.293v-1.904
		l6.006,2.417l2.051,1.611l0.293-0.439c0.879,0.538,2.197,0.879,3.955,1.025l1.025,1.245l1.318,0.293
		c1.611,2.49,2.844,4.347,3.699,5.566c0.854,1.221,1.281,2.319,1.281,3.296c0,1.807-0.77,3.395-2.307,4.761
		c-1.539,1.367-3.211,3.076-5.018,5.127l-1.537,0.073l-1.172,0.073c-0.293,0-1.148,0.342-2.564,1.025l-0.586,1.245h-4.248
		l-1.172,1.025c-0.195,0.195-0.658,0.415-1.391,0.659l-2.197,0.659c-2.539,0-4.787,1.051-6.738,3.149l-2.418-1.611l-2.123,1.025
		c-0.439-0.293-0.832-0.439-1.172-0.439c-0.586,0-1.344,0.439-2.271,1.318l-2.051-0.879l-1.977,0.879l-0.732-0.879l-2.711,1.538
		l-3.588-0.439c-0.732,0-1.49,0.099-2.271,0.293l1.465,2.051l3.662,3.149l1.025,1.831l5.859,4.468l1.318,2.417l0.953,1.099
		c0.293,0.293,0.926,1.637,1.904,4.028l4.027,0.146l4.541,4.614l2.418,1.099l3.295,2.051l3.15,0.952l4.467,1.758l1.686-0.293
		l0.732,0.586l0.293-0.293l0.586,1.025l2.123-0.439l0.439,1.538l1.686-1.099l1.758,0.513l5.127-0.513l2.051,0.513l7.25-1.245
		l5.348-1.465l0.365,0.879l1.025-1.831h2.271L642.328,324.006z"/>
	<path d="M735.564,254.572l-1.172,1.025v2.417c-1.66,0.293-2.832,0.904-3.516,1.831c-0.684,0.928-1.416,1.465-2.197,1.611
		c-0.146,1.074-0.586,1.611-1.318,1.611l-3.734,3.296l-1.539,2.563h-1.318c-0.977,1.807-1.783,2.955-2.416,3.442
		c-1.611,0.685-2.613,1.245-3.004,1.685l-3.148,3.735l-2.271,1.685c-0.781,0.586-1.879,1.124-3.295,1.611l-1.465,2.856l-2.051,1.245
		c-0.635,0.392-1.711,1.367-3.223,2.93l-1.539,3.955l-5.199,6.445c-1.514,2.197-2.662,4.248-3.443,6.152l0.879,1.611l-0.879,2.417
		l0.732,2.856l-1.025,3.296l0.586,3.882l1.025,1.172c-1.172,1.66-1.758,3.321-1.758,4.98c0,1.417-0.219,2.516-0.658,3.296
		c0.391,2.735,0.537,4.395,0.439,4.98l-1.025,7.031l0.146,3.442l-0.586,1.538l1.025,5.347l-1.318,2.271l0.879,2.856l-0.879,1.465
		c1.219,2.051,1.684,3.49,1.391,4.321c-0.732,2.245-1.098,3.516-1.098,3.809l0.879,4.028l-1.465,3.735l1.611,2.417l-0.439,5.42
		c-0.146,1.758-0.781,2.808-1.904,3.149l-0.953-5.127l-1.172-4.468l-0.293-4.175l-1.098-0.659l0.805-1.758l-0.805-2.563l0.805-4.688
		l-1.098-4.907l0.439-4.175l-0.146-0.952l0.146-3.296l-0.586-7.031l0.586-3.296l-0.439-3.882l1.098-6.958l-1.391-2.49l0.586-3.003
		c0-2.392-0.342-4.395-1.025-6.006c0.779-1.465,1.172-2.758,1.172-3.882c0-0.78-0.732-3.783-2.197-9.009
		c-1.271-0.927-2.32-2.148-3.15-3.662c-0.732-0.098-1.439-0.537-2.123-1.318l-4.469-5.42l-2.27-1.318l-1.979-3.589l-5.713-5.713
		l-1.025-2.124l-2.855-3.589l-3.59-3.003v-1.611l-1.758-1.318c-0.732-0.537-1.244-1.099-1.537-1.685l-1.318-2.417
		c-0.246-0.487-1.051-1-2.418-1.538c-2.93-1.563-4.395-4.149-4.395-7.764l0.146-1.392h1.393c0.098-0.684,0.537-1.025,1.318-1.025
		c0.879,0,2.148,0.245,3.809,0.732l0.732,2.417l2.855,1.245l2.344,3.882l3.369,2.417l0.146,3.149c0,0.781,0.732,1.271,2.197,1.465
		l1.539,2.417l2.197,1.758l7.25,10.84l-0.293,1.172l1.611,0.586l2.125,2.856l7.471,7.251c0.537,0.439,1.109,1.124,1.721,2.051
		c0.609,0.928,1.037,1.392,1.281,1.392c0.049,0,0.488-0.427,1.318-1.282c0.83-0.854,1.904-2.478,3.223-4.87
		c0.293-1.806,0.635-2.71,1.025-2.71h1.025c0.439,0,0.66-0.293,0.66-0.879v-0.513c0-0.586,0.684-1.416,2.051-2.49l-0.146-0.513
		c0-0.879,1.098-1.806,3.295-2.783l1.393-2.124v-0.293c0-1.073,1.146-1.685,3.441-1.831c0.781-0.391,1.172-0.83,1.172-1.318
		c0-0.341-0.049-0.586-0.146-0.732c1.563-0.293,2.637-0.78,3.223-1.465l2.49-2.93c0.977-1.904,2.111-3.43,3.406-4.578
		c1.293-1.146,2.063-1.721,2.307-1.721h0.293l1.318-1.831c0.391-0.586,1.293-1.366,2.711-2.344l0.586-2.271
		c0.293,0.195,0.756,0.293,1.391,0.293c0.879,0,1.318-0.757,1.318-2.271v-0.146c0-0.391,0.758-0.732,2.271-1.025l-0.439-0.879
		l1.758-0.732h1.684l0.879-2.563l3.59,0.439l1.098-0.439l0.879,1.904L735.564,254.572z"/>
</g>
</svg>
