<?xml version="1.0" encoding="utf-8"?>
<!-- Generator: Adobe Illustrator 16.0.0, SVG Export Plug-In . SVG Version: 6.00 Build 0)  -->
<!DOCTYPE svg PUBLIC "-//W3C//DTD SVG 1.1//EN" "http://www.w3.org/Graphics/SVG/1.1/DTD/svg11.dtd">
<svg version="1.1" id="Layer_1" xmlns="http://www.w3.org/2000/svg" xmlns:xlink="http://www.w3.org/1999/xlink" x="0px" y="0px"
	 width="32.33px" height="28.5px" viewBox="0 0 32.33 28.5" enable-background="new 0 0 32.33 28.5" xml:space="preserve">
<g>
	<path fill="#FFFFFF" d="M10.659,18.786L10.659,18.786c0.002,0,0.004,0,0.005,0h16.449c0.403,0,0.761-0.269,0.87-0.657l3.63-12.702
		c0.079-0.274,0.024-0.569-0.146-0.796c-0.172-0.229-0.438-0.361-0.725-0.361H8.565L7.917,1.352
		c-0.092-0.416-0.46-0.711-0.886-0.711H1.587c-0.501,0-0.906,0.406-0.906,0.907c0,0.502,0.405,0.908,0.906,0.908h4.717
		c0.113,0.517,3.104,13.968,3.274,14.742c-0.964,0.418-1.642,1.38-1.642,2.495c0,1.502,1.222,2.723,2.723,2.723h1.814h12.823h1.813
		c0.5,0,0.908-0.406,0.908-0.907s-0.408-0.907-0.908-0.907H10.658c-0.5,0-0.907-0.406-0.907-0.906
		C9.754,19.193,10.16,18.787,10.659,18.786z M8.97,6.085h20.571l-3.112,10.888H11.39L8.97,6.085z"/>
	<path fill="#FFFFFF" d="M9.754,25.139c0,1.5,1.222,2.721,2.724,2.721c1.5,0,2.721-1.221,2.721-2.721
		c0-1.502-1.221-2.724-2.721-2.724C10.976,22.415,9.754,23.637,9.754,25.139z M12.478,24.23c0.5,0,0.906,0.406,0.906,0.906
		c0,0.499-0.406,0.907-0.906,0.907c-0.502,0-0.908-0.407-0.908-0.907C11.569,24.639,11.976,24.23,12.478,24.23z"/>
	<path fill="#FFFFFF" d="M22.577,25.139c0,1.5,1.223,2.721,2.723,2.721s2.723-1.221,2.723-2.721c0-1.502-1.223-2.724-2.723-2.724
		S22.577,23.637,22.577,25.139z M25.3,24.23c0.5,0,0.906,0.406,0.906,0.906c0,0.499-0.406,0.907-0.906,0.907
		s-0.908-0.407-0.908-0.907C24.392,24.639,24.8,24.23,25.3,24.23z"/>
</g>
</svg>
