<?xml version="1.0" encoding="utf-8"?>
<!-- Generator: Adobe Illustrator 16.0.0, SVG Export Plug-In . SVG Version: 6.00 Build 0)  -->
<!DOCTYPE svg PUBLIC "-//W3C//DTD SVG 1.1//EN" "http://www.w3.org/Graphics/SVG/1.1/DTD/svg11.dtd">
<svg version="1.1" id="Layer_1" xmlns="http://www.w3.org/2000/svg" xmlns:xlink="http://www.w3.org/1999/xlink" x="0px" y="0px"
	 width="32.33px" height="28.5px" viewBox="0 0 32.33 28.5" enable-background="new 0 0 32.33 28.5" xml:space="preserve">
<g>
	<path fill="#FFFFFF" d="M16.166,13.436c3.642,0,6.607-2.92,6.607-6.51s-2.965-6.511-6.607-6.511c-3.643,0-6.607,2.921-6.607,6.511
		S12.523,13.436,16.166,13.436z M16.166,3.02c2.185,0,3.962,1.752,3.962,3.906s-1.777,3.906-3.962,3.906
		c-2.186,0-3.964-1.752-3.964-3.906S13.98,3.02,16.166,3.02z"/>
	<path fill="#FFFFFF" d="M16.166,16.04c-6.011,0-10.901,4.819-10.901,10.742v1.304h21.801v-1.304
		C27.065,20.859,22.175,16.04,16.166,16.04z M8.012,25.48c0.636-3.871,4.05-6.836,8.153-6.836c4.103,0,7.519,2.965,8.152,6.836
		H8.012z"/>
</g>
</svg>
